<svg xmlns="http://www.w3.org/2000/svg" xml:space="preserve" xmlns:xlink="http://www.w3.org/1999/xlink" style="max-width: 100%;height: auto;" width="1023" height="1023" viewBox="0 0 1023 1023">
<defs><linearGradient id="pattern-gradient" x1="0%" y1="0%" x2="12%" y2="100%" gradientUnits="userSpaceOnUse"><stop offset="0%" stop-color="#000000" /><stop offset="100%" stop-color="#19a37a" /></linearGradient>
<mask id="qrmask"><g fill="#ffffff"><g>
<g transform="translate(310,62) scale(5.3216666666667)"><path d="M3,7.2L2.7,5.6C2.4,4.5,1.5,3.6,0.4,3.3L-1.2,3l1.6-0.3c1.2-0.2,2.1-1.1,2.3-2.3L3-1.2l0.3,1.6 c0.2,1.2,1.1,2.1,2.3,2.3L7.2,3L5.6,3.3C4.5,3.6,3.6,4.5,3.3,5.6L3,7.2z"/></g>
<g transform="translate(589,62) scale(5.3216666666667)"><path d="M3,7.2L2.7,5.6C2.4,4.5,1.5,3.6,0.4,3.3L-1.2,3l1.6-0.3c1.2-0.2,2.1-1.1,2.3-2.3L3-1.2l0.3,1.6 c0.2,1.2,1.1,2.1,2.3,2.3L7.2,3L5.6,3.3C4.5,3.6,3.6,4.5,3.3,5.6L3,7.2z"/></g>
<g transform="translate(620,62) scale(5.3216666666667)"><path d="M3,7.2L2.7,5.6C2.4,4.5,1.5,3.6,0.4,3.3L-1.2,3l1.6-0.3c1.2-0.2,2.1-1.1,2.3-2.3L3-1.2l0.3,1.6 c0.2,1.2,1.1,2.1,2.3,2.3L7.2,3L5.6,3.3C4.5,3.6,3.6,4.5,3.3,5.6L3,7.2z"/></g>
<g transform="translate(682,62) scale(5.3216666666667)"><path d="M3,7.2L2.7,5.6C2.4,4.5,1.5,3.6,0.4,3.3L-1.2,3l1.6-0.3c1.2-0.2,2.1-1.1,2.3-2.3L3-1.2l0.3,1.6 c0.2,1.2,1.1,2.1,2.3,2.3L7.2,3L5.6,3.3C4.5,3.6,3.6,4.5,3.3,5.6L3,7.2z"/></g>
<g transform="translate(310,93) scale(5.3216666666667)"><path d="M3,7.2L2.7,5.6C2.4,4.5,1.5,3.6,0.4,3.3L-1.2,3l1.6-0.3c1.2-0.2,2.1-1.1,2.3-2.3L3-1.2l0.3,1.6 c0.2,1.2,1.1,2.1,2.3,2.3L7.2,3L5.6,3.3C4.5,3.6,3.6,4.5,3.3,5.6L3,7.2z"/></g>
<g transform="translate(341,93) scale(5.3216666666667)"><path d="M3,7.2L2.7,5.6C2.4,4.5,1.5,3.6,0.4,3.3L-1.2,3l1.6-0.3c1.2-0.2,2.1-1.1,2.3-2.3L3-1.2l0.3,1.6 c0.2,1.2,1.1,2.1,2.3,2.3L7.2,3L5.6,3.3C4.5,3.6,3.6,4.5,3.3,5.6L3,7.2z"/></g>
<g transform="translate(372,93) scale(5.3216666666667)"><path d="M3,7.2L2.7,5.6C2.4,4.5,1.5,3.6,0.4,3.3L-1.2,3l1.6-0.3c1.2-0.2,2.1-1.1,2.3-2.3L3-1.2l0.3,1.6 c0.2,1.2,1.1,2.1,2.3,2.3L7.2,3L5.6,3.3C4.5,3.6,3.6,4.5,3.3,5.6L3,7.2z"/></g>
<g transform="translate(403,93) scale(5.3216666666667)"><path d="M3,7.2L2.7,5.6C2.4,4.5,1.5,3.6,0.4,3.3L-1.2,3l1.6-0.3c1.2-0.2,2.1-1.1,2.3-2.3L3-1.2l0.3,1.6 c0.2,1.2,1.1,2.1,2.3,2.3L7.2,3L5.6,3.3C4.5,3.6,3.6,4.5,3.3,5.6L3,7.2z"/></g>
<g transform="translate(434,93) scale(5.3216666666667)"><path d="M3,7.2L2.7,5.6C2.4,4.5,1.5,3.6,0.4,3.3L-1.2,3l1.6-0.3c1.2-0.2,2.1-1.1,2.3-2.3L3-1.2l0.3,1.6 c0.2,1.2,1.1,2.1,2.3,2.3L7.2,3L5.6,3.3C4.5,3.6,3.6,4.5,3.3,5.6L3,7.2z"/></g>
<g transform="translate(496,93) scale(5.3216666666667)"><path d="M3,7.2L2.7,5.6C2.4,4.5,1.5,3.6,0.4,3.3L-1.2,3l1.6-0.3c1.2-0.2,2.1-1.1,2.3-2.3L3-1.2l0.3,1.6 c0.2,1.2,1.1,2.1,2.3,2.3L7.2,3L5.6,3.3C4.5,3.6,3.6,4.5,3.3,5.6L3,7.2z"/></g>
<g transform="translate(589,93) scale(5.3216666666667)"><path d="M3,7.2L2.7,5.6C2.4,4.5,1.5,3.6,0.4,3.3L-1.2,3l1.6-0.3c1.2-0.2,2.1-1.1,2.3-2.3L3-1.2l0.3,1.6 c0.2,1.2,1.1,2.1,2.3,2.3L7.2,3L5.6,3.3C4.5,3.6,3.6,4.5,3.3,5.6L3,7.2z"/></g>
<g transform="translate(651,93) scale(5.3216666666667)"><path d="M3,7.2L2.7,5.6C2.4,4.5,1.5,3.6,0.4,3.3L-1.2,3l1.6-0.3c1.2-0.2,2.1-1.1,2.3-2.3L3-1.2l0.3,1.6 c0.2,1.2,1.1,2.1,2.3,2.3L7.2,3L5.6,3.3C4.5,3.6,3.6,4.5,3.3,5.6L3,7.2z"/></g>
<g transform="translate(310,124) scale(5.3216666666667)"><path d="M3,7.2L2.7,5.6C2.4,4.5,1.5,3.6,0.4,3.3L-1.2,3l1.6-0.3c1.2-0.2,2.1-1.1,2.3-2.3L3-1.2l0.3,1.6 c0.2,1.2,1.1,2.1,2.3,2.3L7.2,3L5.6,3.3C4.5,3.6,3.6,4.5,3.3,5.6L3,7.2z"/></g>
<g transform="translate(403,124) scale(5.3216666666667)"><path d="M3,7.2L2.7,5.6C2.4,4.5,1.5,3.6,0.4,3.3L-1.2,3l1.6-0.3c1.2-0.2,2.1-1.1,2.3-2.3L3-1.2l0.3,1.6 c0.2,1.2,1.1,2.1,2.3,2.3L7.2,3L5.6,3.3C4.5,3.6,3.6,4.5,3.3,5.6L3,7.2z"/></g>
<g transform="translate(527,124) scale(5.3216666666667)"><path d="M3,7.2L2.7,5.6C2.4,4.5,1.5,3.6,0.4,3.3L-1.2,3l1.6-0.3c1.2-0.2,2.1-1.1,2.3-2.3L3-1.2l0.3,1.6 c0.2,1.2,1.1,2.1,2.3,2.3L7.2,3L5.6,3.3C4.5,3.6,3.6,4.5,3.3,5.6L3,7.2z"/></g>
<g transform="translate(620,124) scale(5.3216666666667)"><path d="M3,7.2L2.7,5.6C2.4,4.5,1.5,3.6,0.4,3.3L-1.2,3l1.6-0.3c1.2-0.2,2.1-1.1,2.3-2.3L3-1.2l0.3,1.6 c0.2,1.2,1.1,2.1,2.3,2.3L7.2,3L5.6,3.3C4.5,3.6,3.6,4.5,3.3,5.6L3,7.2z"/></g>
<g transform="translate(651,124) scale(5.3216666666667)"><path d="M3,7.2L2.7,5.6C2.4,4.5,1.5,3.6,0.4,3.3L-1.2,3l1.6-0.3c1.2-0.2,2.1-1.1,2.3-2.3L3-1.2l0.3,1.6 c0.2,1.2,1.1,2.1,2.3,2.3L7.2,3L5.6,3.3C4.5,3.6,3.6,4.5,3.3,5.6L3,7.2z"/></g>
<g transform="translate(682,124) scale(5.3216666666667)"><path d="M3,7.2L2.7,5.6C2.4,4.5,1.5,3.6,0.4,3.3L-1.2,3l1.6-0.3c1.2-0.2,2.1-1.1,2.3-2.3L3-1.2l0.3,1.6 c0.2,1.2,1.1,2.1,2.3,2.3L7.2,3L5.6,3.3C4.5,3.6,3.6,4.5,3.3,5.6L3,7.2z"/></g>
<g transform="translate(372,155) scale(5.3216666666667)"><path d="M3,7.2L2.7,5.6C2.4,4.5,1.5,3.6,0.4,3.3L-1.2,3l1.6-0.3c1.2-0.2,2.1-1.1,2.3-2.3L3-1.2l0.3,1.6 c0.2,1.2,1.1,2.1,2.3,2.3L7.2,3L5.6,3.3C4.5,3.6,3.6,4.5,3.3,5.6L3,7.2z"/></g>
<g transform="translate(465,155) scale(5.3216666666667)"><path d="M3,7.2L2.7,5.6C2.4,4.5,1.5,3.6,0.4,3.3L-1.2,3l1.6-0.3c1.2-0.2,2.1-1.1,2.3-2.3L3-1.2l0.3,1.6 c0.2,1.2,1.1,2.1,2.3,2.3L7.2,3L5.6,3.3C4.5,3.6,3.6,4.5,3.3,5.6L3,7.2z"/></g>
<g transform="translate(496,155) scale(5.3216666666667)"><path d="M3,7.2L2.7,5.6C2.4,4.5,1.5,3.6,0.4,3.3L-1.2,3l1.6-0.3c1.2-0.2,2.1-1.1,2.3-2.3L3-1.2l0.3,1.6 c0.2,1.2,1.1,2.1,2.3,2.3L7.2,3L5.6,3.3C4.5,3.6,3.6,4.5,3.3,5.6L3,7.2z"/></g>
<g transform="translate(558,155) scale(5.3216666666667)"><path d="M3,7.2L2.7,5.6C2.4,4.5,1.5,3.6,0.4,3.3L-1.2,3l1.6-0.3c1.2-0.2,2.1-1.1,2.3-2.3L3-1.2l0.3,1.6 c0.2,1.2,1.1,2.1,2.3,2.3L7.2,3L5.6,3.3C4.5,3.6,3.6,4.5,3.3,5.6L3,7.2z"/></g>
<g transform="translate(589,155) scale(5.3216666666667)"><path d="M3,7.2L2.7,5.6C2.4,4.5,1.5,3.6,0.4,3.3L-1.2,3l1.6-0.3c1.2-0.2,2.1-1.1,2.3-2.3L3-1.2l0.3,1.6 c0.2,1.2,1.1,2.1,2.3,2.3L7.2,3L5.6,3.3C4.5,3.6,3.6,4.5,3.3,5.6L3,7.2z"/></g>
<g transform="translate(651,155) scale(5.3216666666667)"><path d="M3,7.2L2.7,5.6C2.4,4.5,1.5,3.6,0.4,3.3L-1.2,3l1.6-0.3c1.2-0.2,2.1-1.1,2.3-2.3L3-1.2l0.3,1.6 c0.2,1.2,1.1,2.1,2.3,2.3L7.2,3L5.6,3.3C4.5,3.6,3.6,4.5,3.3,5.6L3,7.2z"/></g>
<g transform="translate(372,186) scale(5.3216666666667)"><path d="M3,7.2L2.7,5.6C2.4,4.5,1.5,3.6,0.4,3.3L-1.2,3l1.6-0.3c1.2-0.2,2.1-1.1,2.3-2.3L3-1.2l0.3,1.6 c0.2,1.2,1.1,2.1,2.3,2.3L7.2,3L5.6,3.3C4.5,3.6,3.6,4.5,3.3,5.6L3,7.2z"/></g>
<g transform="translate(403,186) scale(5.3216666666667)"><path d="M3,7.2L2.7,5.6C2.4,4.5,1.5,3.6,0.4,3.3L-1.2,3l1.6-0.3c1.2-0.2,2.1-1.1,2.3-2.3L3-1.2l0.3,1.6 c0.2,1.2,1.1,2.1,2.3,2.3L7.2,3L5.6,3.3C4.5,3.6,3.6,4.5,3.3,5.6L3,7.2z"/></g>
<g transform="translate(434,186) scale(5.3216666666667)"><path d="M3,7.2L2.7,5.6C2.4,4.5,1.5,3.6,0.4,3.3L-1.2,3l1.6-0.3c1.2-0.2,2.1-1.1,2.3-2.3L3-1.2l0.3,1.6 c0.2,1.2,1.1,2.1,2.3,2.3L7.2,3L5.6,3.3C4.5,3.6,3.6,4.5,3.3,5.6L3,7.2z"/></g>
<g transform="translate(465,186) scale(5.3216666666667)"><path d="M3,7.2L2.7,5.6C2.4,4.5,1.5,3.6,0.4,3.3L-1.2,3l1.6-0.3c1.2-0.2,2.1-1.1,2.3-2.3L3-1.2l0.3,1.6 c0.2,1.2,1.1,2.1,2.3,2.3L7.2,3L5.6,3.3C4.5,3.6,3.6,4.5,3.3,5.6L3,7.2z"/></g>
<g transform="translate(558,186) scale(5.3216666666667)"><path d="M3,7.2L2.7,5.6C2.4,4.5,1.5,3.6,0.4,3.3L-1.2,3l1.6-0.3c1.2-0.2,2.1-1.1,2.3-2.3L3-1.2l0.3,1.6 c0.2,1.2,1.1,2.1,2.3,2.3L7.2,3L5.6,3.3C4.5,3.6,3.6,4.5,3.3,5.6L3,7.2z"/></g>
<g transform="translate(620,186) scale(5.3216666666667)"><path d="M3,7.2L2.7,5.6C2.4,4.5,1.5,3.6,0.4,3.3L-1.2,3l1.6-0.3c1.2-0.2,2.1-1.1,2.3-2.3L3-1.2l0.3,1.6 c0.2,1.2,1.1,2.1,2.3,2.3L7.2,3L5.6,3.3C4.5,3.6,3.6,4.5,3.3,5.6L3,7.2z"/></g>
<g transform="translate(651,186) scale(5.3216666666667)"><path d="M3,7.2L2.7,5.6C2.4,4.5,1.5,3.6,0.4,3.3L-1.2,3l1.6-0.3c1.2-0.2,2.1-1.1,2.3-2.3L3-1.2l0.3,1.6 c0.2,1.2,1.1,2.1,2.3,2.3L7.2,3L5.6,3.3C4.5,3.6,3.6,4.5,3.3,5.6L3,7.2z"/></g>
<g transform="translate(310,217) scale(5.3216666666667)"><path d="M3,7.2L2.7,5.6C2.4,4.5,1.5,3.6,0.4,3.3L-1.2,3l1.6-0.3c1.2-0.2,2.1-1.1,2.3-2.3L3-1.2l0.3,1.6 c0.2,1.2,1.1,2.1,2.3,2.3L7.2,3L5.6,3.3C4.5,3.6,3.6,4.5,3.3,5.6L3,7.2z"/></g>
<g transform="translate(372,217) scale(5.3216666666667)"><path d="M3,7.2L2.7,5.6C2.4,4.5,1.5,3.6,0.4,3.3L-1.2,3l1.6-0.3c1.2-0.2,2.1-1.1,2.3-2.3L3-1.2l0.3,1.6 c0.2,1.2,1.1,2.1,2.3,2.3L7.2,3L5.6,3.3C4.5,3.6,3.6,4.5,3.3,5.6L3,7.2z"/></g>
<g transform="translate(434,217) scale(5.3216666666667)"><path d="M3,7.2L2.7,5.6C2.4,4.5,1.5,3.6,0.4,3.3L-1.2,3l1.6-0.3c1.2-0.2,2.1-1.1,2.3-2.3L3-1.2l0.3,1.6 c0.2,1.2,1.1,2.1,2.3,2.3L7.2,3L5.6,3.3C4.5,3.6,3.6,4.5,3.3,5.6L3,7.2z"/></g>
<g transform="translate(527,217) scale(5.3216666666667)"><path d="M3,7.2L2.7,5.6C2.4,4.5,1.5,3.6,0.4,3.3L-1.2,3l1.6-0.3c1.2-0.2,2.1-1.1,2.3-2.3L3-1.2l0.3,1.6 c0.2,1.2,1.1,2.1,2.3,2.3L7.2,3L5.6,3.3C4.5,3.6,3.6,4.5,3.3,5.6L3,7.2z"/></g>
<g transform="translate(558,217) scale(5.3216666666667)"><path d="M3,7.2L2.7,5.6C2.4,4.5,1.5,3.6,0.4,3.3L-1.2,3l1.6-0.3c1.2-0.2,2.1-1.1,2.3-2.3L3-1.2l0.3,1.6 c0.2,1.2,1.1,2.1,2.3,2.3L7.2,3L5.6,3.3C4.5,3.6,3.6,4.5,3.3,5.6L3,7.2z"/></g>
<g transform="translate(620,217) scale(5.3216666666667)"><path d="M3,7.2L2.7,5.6C2.4,4.5,1.5,3.6,0.4,3.3L-1.2,3l1.6-0.3c1.2-0.2,2.1-1.1,2.3-2.3L3-1.2l0.3,1.6 c0.2,1.2,1.1,2.1,2.3,2.3L7.2,3L5.6,3.3C4.5,3.6,3.6,4.5,3.3,5.6L3,7.2z"/></g>
<g transform="translate(310,248) scale(5.3216666666667)"><path d="M3,7.2L2.7,5.6C2.4,4.5,1.5,3.6,0.4,3.3L-1.2,3l1.6-0.3c1.2-0.2,2.1-1.1,2.3-2.3L3-1.2l0.3,1.6 c0.2,1.2,1.1,2.1,2.3,2.3L7.2,3L5.6,3.3C4.5,3.6,3.6,4.5,3.3,5.6L3,7.2z"/></g>
<g transform="translate(372,248) scale(5.3216666666667)"><path d="M3,7.2L2.7,5.6C2.4,4.5,1.5,3.6,0.4,3.3L-1.2,3l1.6-0.3c1.2-0.2,2.1-1.1,2.3-2.3L3-1.2l0.3,1.6 c0.2,1.2,1.1,2.1,2.3,2.3L7.2,3L5.6,3.3C4.5,3.6,3.6,4.5,3.3,5.6L3,7.2z"/></g>
<g transform="translate(434,248) scale(5.3216666666667)"><path d="M3,7.2L2.7,5.6C2.4,4.5,1.5,3.6,0.4,3.3L-1.2,3l1.6-0.3c1.2-0.2,2.1-1.1,2.3-2.3L3-1.2l0.3,1.6 c0.2,1.2,1.1,2.1,2.3,2.3L7.2,3L5.6,3.3C4.5,3.6,3.6,4.5,3.3,5.6L3,7.2z"/></g>
<g transform="translate(496,248) scale(5.3216666666667)"><path d="M3,7.2L2.7,5.6C2.4,4.5,1.5,3.6,0.4,3.3L-1.2,3l1.6-0.3c1.2-0.2,2.1-1.1,2.3-2.3L3-1.2l0.3,1.6 c0.2,1.2,1.1,2.1,2.3,2.3L7.2,3L5.6,3.3C4.5,3.6,3.6,4.5,3.3,5.6L3,7.2z"/></g>
<g transform="translate(558,248) scale(5.3216666666667)"><path d="M3,7.2L2.7,5.6C2.4,4.5,1.5,3.6,0.4,3.3L-1.2,3l1.6-0.3c1.2-0.2,2.1-1.1,2.3-2.3L3-1.2l0.3,1.6 c0.2,1.2,1.1,2.1,2.3,2.3L7.2,3L5.6,3.3C4.5,3.6,3.6,4.5,3.3,5.6L3,7.2z"/></g>
<g transform="translate(620,248) scale(5.3216666666667)"><path d="M3,7.2L2.7,5.6C2.4,4.5,1.5,3.6,0.4,3.3L-1.2,3l1.6-0.3c1.2-0.2,2.1-1.1,2.3-2.3L3-1.2l0.3,1.6 c0.2,1.2,1.1,2.1,2.3,2.3L7.2,3L5.6,3.3C4.5,3.6,3.6,4.5,3.3,5.6L3,7.2z"/></g>
<g transform="translate(682,248) scale(5.3216666666667)"><path d="M3,7.2L2.7,5.6C2.4,4.5,1.5,3.6,0.4,3.3L-1.2,3l1.6-0.3c1.2-0.2,2.1-1.1,2.3-2.3L3-1.2l0.3,1.6 c0.2,1.2,1.1,2.1,2.3,2.3L7.2,3L5.6,3.3C4.5,3.6,3.6,4.5,3.3,5.6L3,7.2z"/></g>
<g transform="translate(310,279) scale(5.3216666666667)"><path d="M3,7.2L2.7,5.6C2.4,4.5,1.5,3.6,0.4,3.3L-1.2,3l1.6-0.3c1.2-0.2,2.1-1.1,2.3-2.3L3-1.2l0.3,1.6 c0.2,1.2,1.1,2.1,2.3,2.3L7.2,3L5.6,3.3C4.5,3.6,3.6,4.5,3.3,5.6L3,7.2z"/></g>
<g transform="translate(403,279) scale(5.3216666666667)"><path d="M3,7.2L2.7,5.6C2.4,4.5,1.5,3.6,0.4,3.3L-1.2,3l1.6-0.3c1.2-0.2,2.1-1.1,2.3-2.3L3-1.2l0.3,1.6 c0.2,1.2,1.1,2.1,2.3,2.3L7.2,3L5.6,3.3C4.5,3.6,3.6,4.5,3.3,5.6L3,7.2z"/></g>
<g transform="translate(434,279) scale(5.3216666666667)"><path d="M3,7.2L2.7,5.6C2.4,4.5,1.5,3.6,0.4,3.3L-1.2,3l1.6-0.3c1.2-0.2,2.1-1.1,2.3-2.3L3-1.2l0.3,1.6 c0.2,1.2,1.1,2.1,2.3,2.3L7.2,3L5.6,3.3C4.5,3.6,3.6,4.5,3.3,5.6L3,7.2z"/></g>
<g transform="translate(465,279) scale(5.3216666666667)"><path d="M3,7.2L2.7,5.6C2.4,4.5,1.5,3.6,0.4,3.3L-1.2,3l1.6-0.3c1.2-0.2,2.1-1.1,2.3-2.3L3-1.2l0.3,1.6 c0.2,1.2,1.1,2.1,2.3,2.3L7.2,3L5.6,3.3C4.5,3.6,3.6,4.5,3.3,5.6L3,7.2z"/></g>
<g transform="translate(527,279) scale(5.3216666666667)"><path d="M3,7.2L2.7,5.6C2.4,4.5,1.5,3.6,0.4,3.3L-1.2,3l1.6-0.3c1.2-0.2,2.1-1.1,2.3-2.3L3-1.2l0.3,1.6 c0.2,1.2,1.1,2.1,2.3,2.3L7.2,3L5.6,3.3C4.5,3.6,3.6,4.5,3.3,5.6L3,7.2z"/></g>
<g transform="translate(558,279) scale(5.3216666666667)"><path d="M3,7.2L2.7,5.6C2.4,4.5,1.5,3.6,0.4,3.3L-1.2,3l1.6-0.3c1.2-0.2,2.1-1.1,2.3-2.3L3-1.2l0.3,1.6 c0.2,1.2,1.1,2.1,2.3,2.3L7.2,3L5.6,3.3C4.5,3.6,3.6,4.5,3.3,5.6L3,7.2z"/></g>
<g transform="translate(651,279) scale(5.3216666666667)"><path d="M3,7.2L2.7,5.6C2.4,4.5,1.5,3.6,0.4,3.3L-1.2,3l1.6-0.3c1.2-0.2,2.1-1.1,2.3-2.3L3-1.2l0.3,1.6 c0.2,1.2,1.1,2.1,2.3,2.3L7.2,3L5.6,3.3C4.5,3.6,3.6,4.5,3.3,5.6L3,7.2z"/></g>
<g transform="translate(124,310) scale(5.3216666666667)"><path d="M3,7.2L2.7,5.6C2.4,4.5,1.5,3.6,0.4,3.3L-1.2,3l1.6-0.3c1.2-0.2,2.1-1.1,2.3-2.3L3-1.2l0.3,1.6 c0.2,1.2,1.1,2.1,2.3,2.3L7.2,3L5.6,3.3C4.5,3.6,3.6,4.5,3.3,5.6L3,7.2z"/></g>
<g transform="translate(155,310) scale(5.3216666666667)"><path d="M3,7.2L2.7,5.6C2.4,4.5,1.5,3.6,0.4,3.3L-1.2,3l1.6-0.3c1.2-0.2,2.1-1.1,2.3-2.3L3-1.2l0.3,1.6 c0.2,1.2,1.1,2.1,2.3,2.3L7.2,3L5.6,3.3C4.5,3.6,3.6,4.5,3.3,5.6L3,7.2z"/></g>
<g transform="translate(186,310) scale(5.3216666666667)"><path d="M3,7.2L2.7,5.6C2.4,4.5,1.5,3.6,0.4,3.3L-1.2,3l1.6-0.3c1.2-0.2,2.1-1.1,2.3-2.3L3-1.2l0.3,1.6 c0.2,1.2,1.1,2.1,2.3,2.3L7.2,3L5.6,3.3C4.5,3.6,3.6,4.5,3.3,5.6L3,7.2z"/></g>
<g transform="translate(248,310) scale(5.3216666666667)"><path d="M3,7.2L2.7,5.6C2.4,4.5,1.5,3.6,0.4,3.3L-1.2,3l1.6-0.3c1.2-0.2,2.1-1.1,2.3-2.3L3-1.2l0.3,1.6 c0.2,1.2,1.1,2.1,2.3,2.3L7.2,3L5.6,3.3C4.5,3.6,3.6,4.5,3.3,5.6L3,7.2z"/></g>
<g transform="translate(310,310) scale(5.3216666666667)"><path d="M3,7.2L2.7,5.6C2.4,4.5,1.5,3.6,0.4,3.3L-1.2,3l1.6-0.3c1.2-0.2,2.1-1.1,2.3-2.3L3-1.2l0.3,1.6 c0.2,1.2,1.1,2.1,2.3,2.3L7.2,3L5.6,3.3C4.5,3.6,3.6,4.5,3.3,5.6L3,7.2z"/></g>
<g transform="translate(341,310) scale(5.3216666666667)"><path d="M3,7.2L2.7,5.6C2.4,4.5,1.5,3.6,0.4,3.3L-1.2,3l1.6-0.3c1.2-0.2,2.1-1.1,2.3-2.3L3-1.2l0.3,1.6 c0.2,1.2,1.1,2.1,2.3,2.3L7.2,3L5.6,3.3C4.5,3.6,3.6,4.5,3.3,5.6L3,7.2z"/></g>
<g transform="translate(372,310) scale(5.3216666666667)"><path d="M3,7.2L2.7,5.6C2.4,4.5,1.5,3.6,0.4,3.3L-1.2,3l1.6-0.3c1.2-0.2,2.1-1.1,2.3-2.3L3-1.2l0.3,1.6 c0.2,1.2,1.1,2.1,2.3,2.3L7.2,3L5.6,3.3C4.5,3.6,3.6,4.5,3.3,5.6L3,7.2z"/></g>
<g transform="translate(527,310) scale(5.3216666666667)"><path d="M3,7.2L2.7,5.6C2.4,4.5,1.5,3.6,0.4,3.3L-1.2,3l1.6-0.3c1.2-0.2,2.1-1.1,2.3-2.3L3-1.2l0.3,1.6 c0.2,1.2,1.1,2.1,2.3,2.3L7.2,3L5.6,3.3C4.5,3.6,3.6,4.5,3.3,5.6L3,7.2z"/></g>
<g transform="translate(558,310) scale(5.3216666666667)"><path d="M3,7.2L2.7,5.6C2.4,4.5,1.5,3.6,0.4,3.3L-1.2,3l1.6-0.3c1.2-0.2,2.1-1.1,2.3-2.3L3-1.2l0.3,1.6 c0.2,1.2,1.1,2.1,2.3,2.3L7.2,3L5.6,3.3C4.5,3.6,3.6,4.5,3.3,5.6L3,7.2z"/></g>
<g transform="translate(620,310) scale(5.3216666666667)"><path d="M3,7.2L2.7,5.6C2.4,4.5,1.5,3.6,0.4,3.3L-1.2,3l1.6-0.3c1.2-0.2,2.1-1.1,2.3-2.3L3-1.2l0.3,1.6 c0.2,1.2,1.1,2.1,2.3,2.3L7.2,3L5.6,3.3C4.5,3.6,3.6,4.5,3.3,5.6L3,7.2z"/></g>
<g transform="translate(713,310) scale(5.3216666666667)"><path d="M3,7.2L2.7,5.6C2.4,4.5,1.5,3.6,0.4,3.3L-1.2,3l1.6-0.3c1.2-0.2,2.1-1.1,2.3-2.3L3-1.2l0.3,1.6 c0.2,1.2,1.1,2.1,2.3,2.3L7.2,3L5.6,3.3C4.5,3.6,3.6,4.5,3.3,5.6L3,7.2z"/></g>
<g transform="translate(744,310) scale(5.3216666666667)"><path d="M3,7.2L2.7,5.6C2.4,4.5,1.5,3.6,0.4,3.3L-1.2,3l1.6-0.3c1.2-0.2,2.1-1.1,2.3-2.3L3-1.2l0.3,1.6 c0.2,1.2,1.1,2.1,2.3,2.3L7.2,3L5.6,3.3C4.5,3.6,3.6,4.5,3.3,5.6L3,7.2z"/></g>
<g transform="translate(775,310) scale(5.3216666666667)"><path d="M3,7.2L2.7,5.6C2.4,4.5,1.5,3.6,0.4,3.3L-1.2,3l1.6-0.3c1.2-0.2,2.1-1.1,2.3-2.3L3-1.2l0.3,1.6 c0.2,1.2,1.1,2.1,2.3,2.3L7.2,3L5.6,3.3C4.5,3.6,3.6,4.5,3.3,5.6L3,7.2z"/></g>
<g transform="translate(868,310) scale(5.3216666666667)"><path d="M3,7.2L2.7,5.6C2.4,4.5,1.5,3.6,0.4,3.3L-1.2,3l1.6-0.3c1.2-0.2,2.1-1.1,2.3-2.3L3-1.2l0.3,1.6 c0.2,1.2,1.1,2.1,2.3,2.3L7.2,3L5.6,3.3C4.5,3.6,3.6,4.5,3.3,5.6L3,7.2z"/></g>
<g transform="translate(899,310) scale(5.3216666666667)"><path d="M3,7.2L2.7,5.6C2.4,4.5,1.5,3.6,0.4,3.3L-1.2,3l1.6-0.3c1.2-0.2,2.1-1.1,2.3-2.3L3-1.2l0.3,1.6 c0.2,1.2,1.1,2.1,2.3,2.3L7.2,3L5.6,3.3C4.5,3.6,3.6,4.5,3.3,5.6L3,7.2z"/></g>
<g transform="translate(930,310) scale(5.3216666666667)"><path d="M3,7.2L2.7,5.6C2.4,4.5,1.5,3.6,0.4,3.3L-1.2,3l1.6-0.3c1.2-0.2,2.1-1.1,2.3-2.3L3-1.2l0.3,1.6 c0.2,1.2,1.1,2.1,2.3,2.3L7.2,3L5.6,3.3C4.5,3.6,3.6,4.5,3.3,5.6L3,7.2z"/></g>
<g transform="translate(217,341) scale(5.3216666666667)"><path d="M3,7.2L2.7,5.6C2.4,4.5,1.5,3.6,0.4,3.3L-1.2,3l1.6-0.3c1.2-0.2,2.1-1.1,2.3-2.3L3-1.2l0.3,1.6 c0.2,1.2,1.1,2.1,2.3,2.3L7.2,3L5.6,3.3C4.5,3.6,3.6,4.5,3.3,5.6L3,7.2z"/></g>
<g transform="translate(310,341) scale(5.3216666666667)"><path d="M3,7.2L2.7,5.6C2.4,4.5,1.5,3.6,0.4,3.3L-1.2,3l1.6-0.3c1.2-0.2,2.1-1.1,2.3-2.3L3-1.2l0.3,1.6 c0.2,1.2,1.1,2.1,2.3,2.3L7.2,3L5.6,3.3C4.5,3.6,3.6,4.5,3.3,5.6L3,7.2z"/></g>
<g transform="translate(341,341) scale(5.3216666666667)"><path d="M3,7.2L2.7,5.6C2.4,4.5,1.5,3.6,0.4,3.3L-1.2,3l1.6-0.3c1.2-0.2,2.1-1.1,2.3-2.3L3-1.2l0.3,1.6 c0.2,1.2,1.1,2.1,2.3,2.3L7.2,3L5.6,3.3C4.5,3.6,3.6,4.5,3.3,5.6L3,7.2z"/></g>
<g transform="translate(434,341) scale(5.3216666666667)"><path d="M3,7.2L2.7,5.6C2.4,4.5,1.5,3.6,0.4,3.3L-1.2,3l1.6-0.3c1.2-0.2,2.1-1.1,2.3-2.3L3-1.2l0.3,1.6 c0.2,1.2,1.1,2.1,2.3,2.3L7.2,3L5.6,3.3C4.5,3.6,3.6,4.5,3.3,5.6L3,7.2z"/></g>
<g transform="translate(527,341) scale(5.3216666666667)"><path d="M3,7.2L2.7,5.6C2.4,4.5,1.5,3.6,0.4,3.3L-1.2,3l1.6-0.3c1.2-0.2,2.1-1.1,2.3-2.3L3-1.2l0.3,1.6 c0.2,1.2,1.1,2.1,2.3,2.3L7.2,3L5.6,3.3C4.5,3.6,3.6,4.5,3.3,5.6L3,7.2z"/></g>
<g transform="translate(589,341) scale(5.3216666666667)"><path d="M3,7.2L2.7,5.6C2.4,4.5,1.5,3.6,0.4,3.3L-1.2,3l1.6-0.3c1.2-0.2,2.1-1.1,2.3-2.3L3-1.2l0.3,1.6 c0.2,1.2,1.1,2.1,2.3,2.3L7.2,3L5.6,3.3C4.5,3.6,3.6,4.5,3.3,5.6L3,7.2z"/></g>
<g transform="translate(775,341) scale(5.3216666666667)"><path d="M3,7.2L2.7,5.6C2.4,4.5,1.5,3.6,0.4,3.3L-1.2,3l1.6-0.3c1.2-0.2,2.1-1.1,2.3-2.3L3-1.2l0.3,1.6 c0.2,1.2,1.1,2.1,2.3,2.3L7.2,3L5.6,3.3C4.5,3.6,3.6,4.5,3.3,5.6L3,7.2z"/></g>
<g transform="translate(806,341) scale(5.3216666666667)"><path d="M3,7.2L2.7,5.6C2.4,4.5,1.5,3.6,0.4,3.3L-1.2,3l1.6-0.3c1.2-0.2,2.1-1.1,2.3-2.3L3-1.2l0.3,1.6 c0.2,1.2,1.1,2.1,2.3,2.3L7.2,3L5.6,3.3C4.5,3.6,3.6,4.5,3.3,5.6L3,7.2z"/></g>
<g transform="translate(837,341) scale(5.3216666666667)"><path d="M3,7.2L2.7,5.6C2.4,4.5,1.5,3.6,0.4,3.3L-1.2,3l1.6-0.3c1.2-0.2,2.1-1.1,2.3-2.3L3-1.2l0.3,1.6 c0.2,1.2,1.1,2.1,2.3,2.3L7.2,3L5.6,3.3C4.5,3.6,3.6,4.5,3.3,5.6L3,7.2z"/></g>
<g transform="translate(868,341) scale(5.3216666666667)"><path d="M3,7.2L2.7,5.6C2.4,4.5,1.5,3.6,0.4,3.3L-1.2,3l1.6-0.3c1.2-0.2,2.1-1.1,2.3-2.3L3-1.2l0.3,1.6 c0.2,1.2,1.1,2.1,2.3,2.3L7.2,3L5.6,3.3C4.5,3.6,3.6,4.5,3.3,5.6L3,7.2z"/></g>
<g transform="translate(930,341) scale(5.3216666666667)"><path d="M3,7.2L2.7,5.6C2.4,4.5,1.5,3.6,0.4,3.3L-1.2,3l1.6-0.3c1.2-0.2,2.1-1.1,2.3-2.3L3-1.2l0.3,1.6 c0.2,1.2,1.1,2.1,2.3,2.3L7.2,3L5.6,3.3C4.5,3.6,3.6,4.5,3.3,5.6L3,7.2z"/></g>
<g transform="translate(93,372) scale(5.3216666666667)"><path d="M3,7.2L2.7,5.6C2.4,4.5,1.5,3.6,0.4,3.3L-1.2,3l1.6-0.3c1.2-0.2,2.1-1.1,2.3-2.3L3-1.2l0.3,1.6 c0.2,1.2,1.1,2.1,2.3,2.3L7.2,3L5.6,3.3C4.5,3.6,3.6,4.5,3.3,5.6L3,7.2z"/></g>
<g transform="translate(124,372) scale(5.3216666666667)"><path d="M3,7.2L2.7,5.6C2.4,4.5,1.5,3.6,0.4,3.3L-1.2,3l1.6-0.3c1.2-0.2,2.1-1.1,2.3-2.3L3-1.2l0.3,1.6 c0.2,1.2,1.1,2.1,2.3,2.3L7.2,3L5.6,3.3C4.5,3.6,3.6,4.5,3.3,5.6L3,7.2z"/></g>
<g transform="translate(155,372) scale(5.3216666666667)"><path d="M3,7.2L2.7,5.6C2.4,4.5,1.5,3.6,0.4,3.3L-1.2,3l1.6-0.3c1.2-0.2,2.1-1.1,2.3-2.3L3-1.2l0.3,1.6 c0.2,1.2,1.1,2.1,2.3,2.3L7.2,3L5.6,3.3C4.5,3.6,3.6,4.5,3.3,5.6L3,7.2z"/></g>
<g transform="translate(186,372) scale(5.3216666666667)"><path d="M3,7.2L2.7,5.6C2.4,4.5,1.5,3.6,0.4,3.3L-1.2,3l1.6-0.3c1.2-0.2,2.1-1.1,2.3-2.3L3-1.2l0.3,1.6 c0.2,1.2,1.1,2.1,2.3,2.3L7.2,3L5.6,3.3C4.5,3.6,3.6,4.5,3.3,5.6L3,7.2z"/></g>
<g transform="translate(217,372) scale(5.3216666666667)"><path d="M3,7.2L2.7,5.6C2.4,4.5,1.5,3.6,0.4,3.3L-1.2,3l1.6-0.3c1.2-0.2,2.1-1.1,2.3-2.3L3-1.2l0.3,1.6 c0.2,1.2,1.1,2.1,2.3,2.3L7.2,3L5.6,3.3C4.5,3.6,3.6,4.5,3.3,5.6L3,7.2z"/></g>
<g transform="translate(248,372) scale(5.3216666666667)"><path d="M3,7.2L2.7,5.6C2.4,4.5,1.5,3.6,0.4,3.3L-1.2,3l1.6-0.3c1.2-0.2,2.1-1.1,2.3-2.3L3-1.2l0.3,1.6 c0.2,1.2,1.1,2.1,2.3,2.3L7.2,3L5.6,3.3C4.5,3.6,3.6,4.5,3.3,5.6L3,7.2z"/></g>
<g transform="translate(310,372) scale(5.3216666666667)"><path d="M3,7.2L2.7,5.6C2.4,4.5,1.5,3.6,0.4,3.3L-1.2,3l1.6-0.3c1.2-0.2,2.1-1.1,2.3-2.3L3-1.2l0.3,1.6 c0.2,1.2,1.1,2.1,2.3,2.3L7.2,3L5.6,3.3C4.5,3.6,3.6,4.5,3.3,5.6L3,7.2z"/></g>
<g transform="translate(372,372) scale(5.3216666666667)"><path d="M3,7.2L2.7,5.6C2.4,4.5,1.5,3.6,0.4,3.3L-1.2,3l1.6-0.3c1.2-0.2,2.1-1.1,2.3-2.3L3-1.2l0.3,1.6 c0.2,1.2,1.1,2.1,2.3,2.3L7.2,3L5.6,3.3C4.5,3.6,3.6,4.5,3.3,5.6L3,7.2z"/></g>
<g transform="translate(434,372) scale(5.3216666666667)"><path d="M3,7.2L2.7,5.6C2.4,4.5,1.5,3.6,0.4,3.3L-1.2,3l1.6-0.3c1.2-0.2,2.1-1.1,2.3-2.3L3-1.2l0.3,1.6 c0.2,1.2,1.1,2.1,2.3,2.3L7.2,3L5.6,3.3C4.5,3.6,3.6,4.5,3.3,5.6L3,7.2z"/></g>
<g transform="translate(465,372) scale(5.3216666666667)"><path d="M3,7.2L2.7,5.6C2.4,4.5,1.5,3.6,0.4,3.3L-1.2,3l1.6-0.3c1.2-0.2,2.1-1.1,2.3-2.3L3-1.2l0.3,1.6 c0.2,1.2,1.1,2.1,2.3,2.3L7.2,3L5.6,3.3C4.5,3.6,3.6,4.5,3.3,5.6L3,7.2z"/></g>
<g transform="translate(496,372) scale(5.3216666666667)"><path d="M3,7.2L2.7,5.6C2.4,4.5,1.5,3.6,0.4,3.3L-1.2,3l1.6-0.3c1.2-0.2,2.1-1.1,2.3-2.3L3-1.2l0.3,1.6 c0.2,1.2,1.1,2.1,2.3,2.3L7.2,3L5.6,3.3C4.5,3.6,3.6,4.5,3.3,5.6L3,7.2z"/></g>
<g transform="translate(682,372) scale(5.3216666666667)"><path d="M3,7.2L2.7,5.6C2.4,4.5,1.5,3.6,0.4,3.3L-1.2,3l1.6-0.3c1.2-0.2,2.1-1.1,2.3-2.3L3-1.2l0.3,1.6 c0.2,1.2,1.1,2.1,2.3,2.3L7.2,3L5.6,3.3C4.5,3.6,3.6,4.5,3.3,5.6L3,7.2z"/></g>
<g transform="translate(713,372) scale(5.3216666666667)"><path d="M3,7.2L2.7,5.6C2.4,4.5,1.5,3.6,0.4,3.3L-1.2,3l1.6-0.3c1.2-0.2,2.1-1.1,2.3-2.3L3-1.2l0.3,1.6 c0.2,1.2,1.1,2.1,2.3,2.3L7.2,3L5.6,3.3C4.5,3.6,3.6,4.5,3.3,5.6L3,7.2z"/></g>
<g transform="translate(744,372) scale(5.3216666666667)"><path d="M3,7.2L2.7,5.6C2.4,4.5,1.5,3.6,0.4,3.3L-1.2,3l1.6-0.3c1.2-0.2,2.1-1.1,2.3-2.3L3-1.2l0.3,1.6 c0.2,1.2,1.1,2.1,2.3,2.3L7.2,3L5.6,3.3C4.5,3.6,3.6,4.5,3.3,5.6L3,7.2z"/></g>
<g transform="translate(775,372) scale(5.3216666666667)"><path d="M3,7.2L2.7,5.6C2.4,4.5,1.5,3.6,0.4,3.3L-1.2,3l1.6-0.3c1.2-0.2,2.1-1.1,2.3-2.3L3-1.2l0.3,1.6 c0.2,1.2,1.1,2.1,2.3,2.3L7.2,3L5.6,3.3C4.5,3.6,3.6,4.5,3.3,5.6L3,7.2z"/></g>
<g transform="translate(806,372) scale(5.3216666666667)"><path d="M3,7.2L2.7,5.6C2.4,4.5,1.5,3.6,0.4,3.3L-1.2,3l1.6-0.3c1.2-0.2,2.1-1.1,2.3-2.3L3-1.2l0.3,1.6 c0.2,1.2,1.1,2.1,2.3,2.3L7.2,3L5.6,3.3C4.5,3.6,3.6,4.5,3.3,5.6L3,7.2z"/></g>
<g transform="translate(868,372) scale(5.3216666666667)"><path d="M3,7.2L2.7,5.6C2.4,4.5,1.5,3.6,0.4,3.3L-1.2,3l1.6-0.3c1.2-0.2,2.1-1.1,2.3-2.3L3-1.2l0.3,1.6 c0.2,1.2,1.1,2.1,2.3,2.3L7.2,3L5.6,3.3C4.5,3.6,3.6,4.5,3.3,5.6L3,7.2z"/></g>
<g transform="translate(279,403) scale(5.3216666666667)"><path d="M3,7.2L2.7,5.6C2.4,4.5,1.5,3.6,0.4,3.3L-1.2,3l1.6-0.3c1.2-0.2,2.1-1.1,2.3-2.3L3-1.2l0.3,1.6 c0.2,1.2,1.1,2.1,2.3,2.3L7.2,3L5.6,3.3C4.5,3.6,3.6,4.5,3.3,5.6L3,7.2z"/></g>
<g transform="translate(341,403) scale(5.3216666666667)"><path d="M3,7.2L2.7,5.6C2.4,4.5,1.5,3.6,0.4,3.3L-1.2,3l1.6-0.3c1.2-0.2,2.1-1.1,2.3-2.3L3-1.2l0.3,1.6 c0.2,1.2,1.1,2.1,2.3,2.3L7.2,3L5.6,3.3C4.5,3.6,3.6,4.5,3.3,5.6L3,7.2z"/></g>
<g transform="translate(372,403) scale(5.3216666666667)"><path d="M3,7.2L2.7,5.6C2.4,4.5,1.5,3.6,0.4,3.3L-1.2,3l1.6-0.3c1.2-0.2,2.1-1.1,2.3-2.3L3-1.2l0.3,1.6 c0.2,1.2,1.1,2.1,2.3,2.3L7.2,3L5.6,3.3C4.5,3.6,3.6,4.5,3.3,5.6L3,7.2z"/></g>
<g transform="translate(527,403) scale(5.3216666666667)"><path d="M3,7.2L2.7,5.6C2.4,4.5,1.5,3.6,0.4,3.3L-1.2,3l1.6-0.3c1.2-0.2,2.1-1.1,2.3-2.3L3-1.2l0.3,1.6 c0.2,1.2,1.1,2.1,2.3,2.3L7.2,3L5.6,3.3C4.5,3.6,3.6,4.5,3.3,5.6L3,7.2z"/></g>
<g transform="translate(558,403) scale(5.3216666666667)"><path d="M3,7.2L2.7,5.6C2.4,4.5,1.5,3.6,0.4,3.3L-1.2,3l1.6-0.3c1.2-0.2,2.1-1.1,2.3-2.3L3-1.2l0.3,1.6 c0.2,1.2,1.1,2.1,2.3,2.3L7.2,3L5.6,3.3C4.5,3.6,3.6,4.5,3.3,5.6L3,7.2z"/></g>
<g transform="translate(589,403) scale(5.3216666666667)"><path d="M3,7.2L2.7,5.6C2.4,4.5,1.5,3.6,0.4,3.3L-1.2,3l1.6-0.3c1.2-0.2,2.1-1.1,2.3-2.3L3-1.2l0.3,1.6 c0.2,1.2,1.1,2.1,2.3,2.3L7.2,3L5.6,3.3C4.5,3.6,3.6,4.5,3.3,5.6L3,7.2z"/></g>
<g transform="translate(713,403) scale(5.3216666666667)"><path d="M3,7.2L2.7,5.6C2.4,4.5,1.5,3.6,0.4,3.3L-1.2,3l1.6-0.3c1.2-0.2,2.1-1.1,2.3-2.3L3-1.2l0.3,1.6 c0.2,1.2,1.1,2.1,2.3,2.3L7.2,3L5.6,3.3C4.5,3.6,3.6,4.5,3.3,5.6L3,7.2z"/></g>
<g transform="translate(744,403) scale(5.3216666666667)"><path d="M3,7.2L2.7,5.6C2.4,4.5,1.5,3.6,0.4,3.3L-1.2,3l1.6-0.3c1.2-0.2,2.1-1.1,2.3-2.3L3-1.2l0.3,1.6 c0.2,1.2,1.1,2.1,2.3,2.3L7.2,3L5.6,3.3C4.5,3.6,3.6,4.5,3.3,5.6L3,7.2z"/></g>
<g transform="translate(775,403) scale(5.3216666666667)"><path d="M3,7.2L2.7,5.6C2.4,4.5,1.5,3.6,0.4,3.3L-1.2,3l1.6-0.3c1.2-0.2,2.1-1.1,2.3-2.3L3-1.2l0.3,1.6 c0.2,1.2,1.1,2.1,2.3,2.3L7.2,3L5.6,3.3C4.5,3.6,3.6,4.5,3.3,5.6L3,7.2z"/></g>
<g transform="translate(806,403) scale(5.3216666666667)"><path d="M3,7.2L2.7,5.6C2.4,4.5,1.5,3.6,0.4,3.3L-1.2,3l1.6-0.3c1.2-0.2,2.1-1.1,2.3-2.3L3-1.2l0.3,1.6 c0.2,1.2,1.1,2.1,2.3,2.3L7.2,3L5.6,3.3C4.5,3.6,3.6,4.5,3.3,5.6L3,7.2z"/></g>
<g transform="translate(837,403) scale(5.3216666666667)"><path d="M3,7.2L2.7,5.6C2.4,4.5,1.5,3.6,0.4,3.3L-1.2,3l1.6-0.3c1.2-0.2,2.1-1.1,2.3-2.3L3-1.2l0.3,1.6 c0.2,1.2,1.1,2.1,2.3,2.3L7.2,3L5.6,3.3C4.5,3.6,3.6,4.5,3.3,5.6L3,7.2z"/></g>
<g transform="translate(899,403) scale(5.3216666666667)"><path d="M3,7.2L2.7,5.6C2.4,4.5,1.5,3.6,0.4,3.3L-1.2,3l1.6-0.3c1.2-0.2,2.1-1.1,2.3-2.3L3-1.2l0.3,1.6 c0.2,1.2,1.1,2.1,2.3,2.3L7.2,3L5.6,3.3C4.5,3.6,3.6,4.5,3.3,5.6L3,7.2z"/></g>
<g transform="translate(93,434) scale(5.3216666666667)"><path d="M3,7.2L2.7,5.6C2.4,4.5,1.5,3.6,0.4,3.3L-1.2,3l1.6-0.3c1.2-0.2,2.1-1.1,2.3-2.3L3-1.2l0.3,1.6 c0.2,1.2,1.1,2.1,2.3,2.3L7.2,3L5.6,3.3C4.5,3.6,3.6,4.5,3.3,5.6L3,7.2z"/></g>
<g transform="translate(124,434) scale(5.3216666666667)"><path d="M3,7.2L2.7,5.6C2.4,4.5,1.5,3.6,0.4,3.3L-1.2,3l1.6-0.3c1.2-0.2,2.1-1.1,2.3-2.3L3-1.2l0.3,1.6 c0.2,1.2,1.1,2.1,2.3,2.3L7.2,3L5.6,3.3C4.5,3.6,3.6,4.5,3.3,5.6L3,7.2z"/></g>
<g transform="translate(155,434) scale(5.3216666666667)"><path d="M3,7.2L2.7,5.6C2.4,4.5,1.5,3.6,0.4,3.3L-1.2,3l1.6-0.3c1.2-0.2,2.1-1.1,2.3-2.3L3-1.2l0.3,1.6 c0.2,1.2,1.1,2.1,2.3,2.3L7.2,3L5.6,3.3C4.5,3.6,3.6,4.5,3.3,5.6L3,7.2z"/></g>
<g transform="translate(186,434) scale(5.3216666666667)"><path d="M3,7.2L2.7,5.6C2.4,4.5,1.5,3.6,0.4,3.3L-1.2,3l1.6-0.3c1.2-0.2,2.1-1.1,2.3-2.3L3-1.2l0.3,1.6 c0.2,1.2,1.1,2.1,2.3,2.3L7.2,3L5.6,3.3C4.5,3.6,3.6,4.5,3.3,5.6L3,7.2z"/></g>
<g transform="translate(217,434) scale(5.3216666666667)"><path d="M3,7.2L2.7,5.6C2.4,4.5,1.5,3.6,0.4,3.3L-1.2,3l1.6-0.3c1.2-0.2,2.1-1.1,2.3-2.3L3-1.2l0.3,1.6 c0.2,1.2,1.1,2.1,2.3,2.3L7.2,3L5.6,3.3C4.5,3.6,3.6,4.5,3.3,5.6L3,7.2z"/></g>
<g transform="translate(248,434) scale(5.3216666666667)"><path d="M3,7.2L2.7,5.6C2.4,4.5,1.5,3.6,0.4,3.3L-1.2,3l1.6-0.3c1.2-0.2,2.1-1.1,2.3-2.3L3-1.2l0.3,1.6 c0.2,1.2,1.1,2.1,2.3,2.3L7.2,3L5.6,3.3C4.5,3.6,3.6,4.5,3.3,5.6L3,7.2z"/></g>
<g transform="translate(279,434) scale(5.3216666666667)"><path d="M3,7.2L2.7,5.6C2.4,4.5,1.5,3.6,0.4,3.3L-1.2,3l1.6-0.3c1.2-0.2,2.1-1.1,2.3-2.3L3-1.2l0.3,1.6 c0.2,1.2,1.1,2.1,2.3,2.3L7.2,3L5.6,3.3C4.5,3.6,3.6,4.5,3.3,5.6L3,7.2z"/></g>
<g transform="translate(310,434) scale(5.3216666666667)"><path d="M3,7.2L2.7,5.6C2.4,4.5,1.5,3.6,0.4,3.3L-1.2,3l1.6-0.3c1.2-0.2,2.1-1.1,2.3-2.3L3-1.2l0.3,1.6 c0.2,1.2,1.1,2.1,2.3,2.3L7.2,3L5.6,3.3C4.5,3.6,3.6,4.5,3.3,5.6L3,7.2z"/></g>
<g transform="translate(403,434) scale(5.3216666666667)"><path d="M3,7.2L2.7,5.6C2.4,4.5,1.5,3.6,0.4,3.3L-1.2,3l1.6-0.3c1.2-0.2,2.1-1.1,2.3-2.3L3-1.2l0.3,1.6 c0.2,1.2,1.1,2.1,2.3,2.3L7.2,3L5.6,3.3C4.5,3.6,3.6,4.5,3.3,5.6L3,7.2z"/></g>
<g transform="translate(465,434) scale(5.3216666666667)"><path d="M3,7.2L2.7,5.6C2.4,4.5,1.5,3.6,0.4,3.3L-1.2,3l1.6-0.3c1.2-0.2,2.1-1.1,2.3-2.3L3-1.2l0.3,1.6 c0.2,1.2,1.1,2.1,2.3,2.3L7.2,3L5.6,3.3C4.5,3.6,3.6,4.5,3.3,5.6L3,7.2z"/></g>
<g transform="translate(496,434) scale(5.3216666666667)"><path d="M3,7.2L2.7,5.6C2.4,4.5,1.5,3.6,0.4,3.3L-1.2,3l1.6-0.3c1.2-0.2,2.1-1.1,2.3-2.3L3-1.2l0.3,1.6 c0.2,1.2,1.1,2.1,2.3,2.3L7.2,3L5.6,3.3C4.5,3.6,3.6,4.5,3.3,5.6L3,7.2z"/></g>
<g transform="translate(558,434) scale(5.3216666666667)"><path d="M3,7.2L2.7,5.6C2.4,4.5,1.5,3.6,0.4,3.3L-1.2,3l1.6-0.3c1.2-0.2,2.1-1.1,2.3-2.3L3-1.2l0.3,1.6 c0.2,1.2,1.1,2.1,2.3,2.3L7.2,3L5.6,3.3C4.5,3.6,3.6,4.5,3.3,5.6L3,7.2z"/></g>
<g transform="translate(682,434) scale(5.3216666666667)"><path d="M3,7.2L2.7,5.6C2.4,4.5,1.5,3.6,0.4,3.3L-1.2,3l1.6-0.3c1.2-0.2,2.1-1.1,2.3-2.3L3-1.2l0.3,1.6 c0.2,1.2,1.1,2.1,2.3,2.3L7.2,3L5.6,3.3C4.5,3.6,3.6,4.5,3.3,5.6L3,7.2z"/></g>
<g transform="translate(713,434) scale(5.3216666666667)"><path d="M3,7.2L2.7,5.6C2.4,4.5,1.5,3.6,0.4,3.3L-1.2,3l1.6-0.3c1.2-0.2,2.1-1.1,2.3-2.3L3-1.2l0.3,1.6 c0.2,1.2,1.1,2.1,2.3,2.3L7.2,3L5.6,3.3C4.5,3.6,3.6,4.5,3.3,5.6L3,7.2z"/></g>
<g transform="translate(775,434) scale(5.3216666666667)"><path d="M3,7.2L2.7,5.6C2.4,4.5,1.5,3.6,0.4,3.3L-1.2,3l1.6-0.3c1.2-0.2,2.1-1.1,2.3-2.3L3-1.2l0.3,1.6 c0.2,1.2,1.1,2.1,2.3,2.3L7.2,3L5.6,3.3C4.5,3.6,3.6,4.5,3.3,5.6L3,7.2z"/></g>
<g transform="translate(868,434) scale(5.3216666666667)"><path d="M3,7.2L2.7,5.6C2.4,4.5,1.5,3.6,0.4,3.3L-1.2,3l1.6-0.3c1.2-0.2,2.1-1.1,2.3-2.3L3-1.2l0.3,1.6 c0.2,1.2,1.1,2.1,2.3,2.3L7.2,3L5.6,3.3C4.5,3.6,3.6,4.5,3.3,5.6L3,7.2z"/></g>
<g transform="translate(899,434) scale(5.3216666666667)"><path d="M3,7.2L2.7,5.6C2.4,4.5,1.5,3.6,0.4,3.3L-1.2,3l1.6-0.3c1.2-0.2,2.1-1.1,2.3-2.3L3-1.2l0.3,1.6 c0.2,1.2,1.1,2.1,2.3,2.3L7.2,3L5.6,3.3C4.5,3.6,3.6,4.5,3.3,5.6L3,7.2z"/></g>
<g transform="translate(930,434) scale(5.3216666666667)"><path d="M3,7.2L2.7,5.6C2.4,4.5,1.5,3.6,0.4,3.3L-1.2,3l1.6-0.3c1.2-0.2,2.1-1.1,2.3-2.3L3-1.2l0.3,1.6 c0.2,1.2,1.1,2.1,2.3,2.3L7.2,3L5.6,3.3C4.5,3.6,3.6,4.5,3.3,5.6L3,7.2z"/></g>
<g transform="translate(124,465) scale(5.3216666666667)"><path d="M3,7.2L2.7,5.6C2.4,4.5,1.5,3.6,0.4,3.3L-1.2,3l1.6-0.3c1.2-0.2,2.1-1.1,2.3-2.3L3-1.2l0.3,1.6 c0.2,1.2,1.1,2.1,2.3,2.3L7.2,3L5.6,3.3C4.5,3.6,3.6,4.5,3.3,5.6L3,7.2z"/></g>
<g transform="translate(155,465) scale(5.3216666666667)"><path d="M3,7.2L2.7,5.6C2.4,4.5,1.5,3.6,0.4,3.3L-1.2,3l1.6-0.3c1.2-0.2,2.1-1.1,2.3-2.3L3-1.2l0.3,1.6 c0.2,1.2,1.1,2.1,2.3,2.3L7.2,3L5.6,3.3C4.5,3.6,3.6,4.5,3.3,5.6L3,7.2z"/></g>
<g transform="translate(186,465) scale(5.3216666666667)"><path d="M3,7.2L2.7,5.6C2.4,4.5,1.5,3.6,0.4,3.3L-1.2,3l1.6-0.3c1.2-0.2,2.1-1.1,2.3-2.3L3-1.2l0.3,1.6 c0.2,1.2,1.1,2.1,2.3,2.3L7.2,3L5.6,3.3C4.5,3.6,3.6,4.5,3.3,5.6L3,7.2z"/></g>
<g transform="translate(217,465) scale(5.3216666666667)"><path d="M3,7.2L2.7,5.6C2.4,4.5,1.5,3.6,0.4,3.3L-1.2,3l1.6-0.3c1.2-0.2,2.1-1.1,2.3-2.3L3-1.2l0.3,1.6 c0.2,1.2,1.1,2.1,2.3,2.3L7.2,3L5.6,3.3C4.5,3.6,3.6,4.5,3.3,5.6L3,7.2z"/></g>
<g transform="translate(279,465) scale(5.3216666666667)"><path d="M3,7.2L2.7,5.6C2.4,4.5,1.5,3.6,0.4,3.3L-1.2,3l1.6-0.3c1.2-0.2,2.1-1.1,2.3-2.3L3-1.2l0.3,1.6 c0.2,1.2,1.1,2.1,2.3,2.3L7.2,3L5.6,3.3C4.5,3.6,3.6,4.5,3.3,5.6L3,7.2z"/></g>
<g transform="translate(341,465) scale(5.3216666666667)"><path d="M3,7.2L2.7,5.6C2.4,4.5,1.5,3.6,0.4,3.3L-1.2,3l1.6-0.3c1.2-0.2,2.1-1.1,2.3-2.3L3-1.2l0.3,1.6 c0.2,1.2,1.1,2.1,2.3,2.3L7.2,3L5.6,3.3C4.5,3.6,3.6,4.5,3.3,5.6L3,7.2z"/></g>
<g transform="translate(372,465) scale(5.3216666666667)"><path d="M3,7.2L2.7,5.6C2.4,4.5,1.5,3.6,0.4,3.3L-1.2,3l1.6-0.3c1.2-0.2,2.1-1.1,2.3-2.3L3-1.2l0.3,1.6 c0.2,1.2,1.1,2.1,2.3,2.3L7.2,3L5.6,3.3C4.5,3.6,3.6,4.5,3.3,5.6L3,7.2z"/></g>
<g transform="translate(434,465) scale(5.3216666666667)"><path d="M3,7.2L2.7,5.6C2.4,4.5,1.5,3.6,0.4,3.3L-1.2,3l1.6-0.3c1.2-0.2,2.1-1.1,2.3-2.3L3-1.2l0.3,1.6 c0.2,1.2,1.1,2.1,2.3,2.3L7.2,3L5.6,3.3C4.5,3.6,3.6,4.5,3.3,5.6L3,7.2z"/></g>
<g transform="translate(465,465) scale(5.3216666666667)"><path d="M3,7.2L2.7,5.6C2.4,4.5,1.5,3.6,0.4,3.3L-1.2,3l1.6-0.3c1.2-0.2,2.1-1.1,2.3-2.3L3-1.2l0.3,1.6 c0.2,1.2,1.1,2.1,2.3,2.3L7.2,3L5.6,3.3C4.5,3.6,3.6,4.5,3.3,5.6L3,7.2z"/></g>
<g transform="translate(527,465) scale(5.3216666666667)"><path d="M3,7.2L2.7,5.6C2.4,4.5,1.5,3.6,0.4,3.3L-1.2,3l1.6-0.3c1.2-0.2,2.1-1.1,2.3-2.3L3-1.2l0.3,1.6 c0.2,1.2,1.1,2.1,2.3,2.3L7.2,3L5.6,3.3C4.5,3.6,3.6,4.5,3.3,5.6L3,7.2z"/></g>
<g transform="translate(620,465) scale(5.3216666666667)"><path d="M3,7.2L2.7,5.6C2.4,4.5,1.5,3.6,0.4,3.3L-1.2,3l1.6-0.3c1.2-0.2,2.1-1.1,2.3-2.3L3-1.2l0.3,1.6 c0.2,1.2,1.1,2.1,2.3,2.3L7.2,3L5.6,3.3C4.5,3.6,3.6,4.5,3.3,5.6L3,7.2z"/></g>
<g transform="translate(651,465) scale(5.3216666666667)"><path d="M3,7.2L2.7,5.6C2.4,4.5,1.5,3.6,0.4,3.3L-1.2,3l1.6-0.3c1.2-0.2,2.1-1.1,2.3-2.3L3-1.2l0.3,1.6 c0.2,1.2,1.1,2.1,2.3,2.3L7.2,3L5.6,3.3C4.5,3.6,3.6,4.5,3.3,5.6L3,7.2z"/></g>
<g transform="translate(682,465) scale(5.3216666666667)"><path d="M3,7.2L2.7,5.6C2.4,4.5,1.5,3.6,0.4,3.3L-1.2,3l1.6-0.3c1.2-0.2,2.1-1.1,2.3-2.3L3-1.2l0.3,1.6 c0.2,1.2,1.1,2.1,2.3,2.3L7.2,3L5.6,3.3C4.5,3.6,3.6,4.5,3.3,5.6L3,7.2z"/></g>
<g transform="translate(713,465) scale(5.3216666666667)"><path d="M3,7.2L2.7,5.6C2.4,4.5,1.5,3.6,0.4,3.3L-1.2,3l1.6-0.3c1.2-0.2,2.1-1.1,2.3-2.3L3-1.2l0.3,1.6 c0.2,1.2,1.1,2.1,2.3,2.3L7.2,3L5.6,3.3C4.5,3.6,3.6,4.5,3.3,5.6L3,7.2z"/></g>
<g transform="translate(744,465) scale(5.3216666666667)"><path d="M3,7.2L2.7,5.6C2.4,4.5,1.5,3.6,0.4,3.3L-1.2,3l1.6-0.3c1.2-0.2,2.1-1.1,2.3-2.3L3-1.2l0.3,1.6 c0.2,1.2,1.1,2.1,2.3,2.3L7.2,3L5.6,3.3C4.5,3.6,3.6,4.5,3.3,5.6L3,7.2z"/></g>
<g transform="translate(806,465) scale(5.3216666666667)"><path d="M3,7.2L2.7,5.6C2.4,4.5,1.5,3.6,0.4,3.3L-1.2,3l1.6-0.3c1.2-0.2,2.1-1.1,2.3-2.3L3-1.2l0.3,1.6 c0.2,1.2,1.1,2.1,2.3,2.3L7.2,3L5.6,3.3C4.5,3.6,3.6,4.5,3.3,5.6L3,7.2z"/></g>
<g transform="translate(837,465) scale(5.3216666666667)"><path d="M3,7.2L2.7,5.6C2.4,4.5,1.5,3.6,0.4,3.3L-1.2,3l1.6-0.3c1.2-0.2,2.1-1.1,2.3-2.3L3-1.2l0.3,1.6 c0.2,1.2,1.1,2.1,2.3,2.3L7.2,3L5.6,3.3C4.5,3.6,3.6,4.5,3.3,5.6L3,7.2z"/></g>
<g transform="translate(899,465) scale(5.3216666666667)"><path d="M3,7.2L2.7,5.6C2.4,4.5,1.5,3.6,0.4,3.3L-1.2,3l1.6-0.3c1.2-0.2,2.1-1.1,2.3-2.3L3-1.2l0.3,1.6 c0.2,1.2,1.1,2.1,2.3,2.3L7.2,3L5.6,3.3C4.5,3.6,3.6,4.5,3.3,5.6L3,7.2z"/></g>
<g transform="translate(930,465) scale(5.3216666666667)"><path d="M3,7.2L2.7,5.6C2.4,4.5,1.5,3.6,0.4,3.3L-1.2,3l1.6-0.3c1.2-0.2,2.1-1.1,2.3-2.3L3-1.2l0.3,1.6 c0.2,1.2,1.1,2.1,2.3,2.3L7.2,3L5.6,3.3C4.5,3.6,3.6,4.5,3.3,5.6L3,7.2z"/></g>
<g transform="translate(93,496) scale(5.3216666666667)"><path d="M3,7.2L2.7,5.6C2.4,4.5,1.5,3.6,0.4,3.3L-1.2,3l1.6-0.3c1.2-0.2,2.1-1.1,2.3-2.3L3-1.2l0.3,1.6 c0.2,1.2,1.1,2.1,2.3,2.3L7.2,3L5.6,3.3C4.5,3.6,3.6,4.5,3.3,5.6L3,7.2z"/></g>
<g transform="translate(186,496) scale(5.3216666666667)"><path d="M3,7.2L2.7,5.6C2.4,4.5,1.5,3.6,0.4,3.3L-1.2,3l1.6-0.3c1.2-0.2,2.1-1.1,2.3-2.3L3-1.2l0.3,1.6 c0.2,1.2,1.1,2.1,2.3,2.3L7.2,3L5.6,3.3C4.5,3.6,3.6,4.5,3.3,5.6L3,7.2z"/></g>
<g transform="translate(217,496) scale(5.3216666666667)"><path d="M3,7.2L2.7,5.6C2.4,4.5,1.5,3.6,0.4,3.3L-1.2,3l1.6-0.3c1.2-0.2,2.1-1.1,2.3-2.3L3-1.2l0.3,1.6 c0.2,1.2,1.1,2.1,2.3,2.3L7.2,3L5.6,3.3C4.5,3.6,3.6,4.5,3.3,5.6L3,7.2z"/></g>
<g transform="translate(248,496) scale(5.3216666666667)"><path d="M3,7.2L2.7,5.6C2.4,4.5,1.5,3.6,0.4,3.3L-1.2,3l1.6-0.3c1.2-0.2,2.1-1.1,2.3-2.3L3-1.2l0.3,1.6 c0.2,1.2,1.1,2.1,2.3,2.3L7.2,3L5.6,3.3C4.5,3.6,3.6,4.5,3.3,5.6L3,7.2z"/></g>
<g transform="translate(310,496) scale(5.3216666666667)"><path d="M3,7.2L2.7,5.6C2.4,4.5,1.5,3.6,0.4,3.3L-1.2,3l1.6-0.3c1.2-0.2,2.1-1.1,2.3-2.3L3-1.2l0.3,1.6 c0.2,1.2,1.1,2.1,2.3,2.3L7.2,3L5.6,3.3C4.5,3.6,3.6,4.5,3.3,5.6L3,7.2z"/></g>
<g transform="translate(341,496) scale(5.3216666666667)"><path d="M3,7.2L2.7,5.6C2.4,4.5,1.5,3.6,0.4,3.3L-1.2,3l1.6-0.3c1.2-0.2,2.1-1.1,2.3-2.3L3-1.2l0.3,1.6 c0.2,1.2,1.1,2.1,2.3,2.3L7.2,3L5.6,3.3C4.5,3.6,3.6,4.5,3.3,5.6L3,7.2z"/></g>
<g transform="translate(434,496) scale(5.3216666666667)"><path d="M3,7.2L2.7,5.6C2.4,4.5,1.5,3.6,0.4,3.3L-1.2,3l1.6-0.3c1.2-0.2,2.1-1.1,2.3-2.3L3-1.2l0.3,1.6 c0.2,1.2,1.1,2.1,2.3,2.3L7.2,3L5.6,3.3C4.5,3.6,3.6,4.5,3.3,5.6L3,7.2z"/></g>
<g transform="translate(465,496) scale(5.3216666666667)"><path d="M3,7.2L2.7,5.6C2.4,4.5,1.5,3.6,0.4,3.3L-1.2,3l1.6-0.3c1.2-0.2,2.1-1.1,2.3-2.3L3-1.2l0.3,1.6 c0.2,1.2,1.1,2.1,2.3,2.3L7.2,3L5.6,3.3C4.5,3.6,3.6,4.5,3.3,5.6L3,7.2z"/></g>
<g transform="translate(496,496) scale(5.3216666666667)"><path d="M3,7.2L2.7,5.6C2.4,4.5,1.5,3.6,0.4,3.3L-1.2,3l1.6-0.3c1.2-0.2,2.1-1.1,2.3-2.3L3-1.2l0.3,1.6 c0.2,1.2,1.1,2.1,2.3,2.3L7.2,3L5.6,3.3C4.5,3.6,3.6,4.5,3.3,5.6L3,7.2z"/></g>
<g transform="translate(589,496) scale(5.3216666666667)"><path d="M3,7.2L2.7,5.6C2.4,4.5,1.5,3.6,0.4,3.3L-1.2,3l1.6-0.3c1.2-0.2,2.1-1.1,2.3-2.3L3-1.2l0.3,1.6 c0.2,1.2,1.1,2.1,2.3,2.3L7.2,3L5.6,3.3C4.5,3.6,3.6,4.5,3.3,5.6L3,7.2z"/></g>
<g transform="translate(620,496) scale(5.3216666666667)"><path d="M3,7.2L2.7,5.6C2.4,4.5,1.5,3.6,0.4,3.3L-1.2,3l1.6-0.3c1.2-0.2,2.1-1.1,2.3-2.3L3-1.2l0.3,1.6 c0.2,1.2,1.1,2.1,2.3,2.3L7.2,3L5.6,3.3C4.5,3.6,3.6,4.5,3.3,5.6L3,7.2z"/></g>
<g transform="translate(682,496) scale(5.3216666666667)"><path d="M3,7.2L2.7,5.6C2.4,4.5,1.5,3.6,0.4,3.3L-1.2,3l1.6-0.3c1.2-0.2,2.1-1.1,2.3-2.3L3-1.2l0.3,1.6 c0.2,1.2,1.1,2.1,2.3,2.3L7.2,3L5.6,3.3C4.5,3.6,3.6,4.5,3.3,5.6L3,7.2z"/></g>
<g transform="translate(713,496) scale(5.3216666666667)"><path d="M3,7.2L2.7,5.6C2.4,4.5,1.5,3.6,0.4,3.3L-1.2,3l1.6-0.3c1.2-0.2,2.1-1.1,2.3-2.3L3-1.2l0.3,1.6 c0.2,1.2,1.1,2.1,2.3,2.3L7.2,3L5.6,3.3C4.5,3.6,3.6,4.5,3.3,5.6L3,7.2z"/></g>
<g transform="translate(775,496) scale(5.3216666666667)"><path d="M3,7.2L2.7,5.6C2.4,4.5,1.5,3.6,0.4,3.3L-1.2,3l1.6-0.3c1.2-0.2,2.1-1.1,2.3-2.3L3-1.2l0.3,1.6 c0.2,1.2,1.1,2.1,2.3,2.3L7.2,3L5.6,3.3C4.5,3.6,3.6,4.5,3.3,5.6L3,7.2z"/></g>
<g transform="translate(93,527) scale(5.3216666666667)"><path d="M3,7.2L2.7,5.6C2.4,4.5,1.5,3.6,0.4,3.3L-1.2,3l1.6-0.3c1.2-0.2,2.1-1.1,2.3-2.3L3-1.2l0.3,1.6 c0.2,1.2,1.1,2.1,2.3,2.3L7.2,3L5.6,3.3C4.5,3.6,3.6,4.5,3.3,5.6L3,7.2z"/></g>
<g transform="translate(124,527) scale(5.3216666666667)"><path d="M3,7.2L2.7,5.6C2.4,4.5,1.5,3.6,0.4,3.3L-1.2,3l1.6-0.3c1.2-0.2,2.1-1.1,2.3-2.3L3-1.2l0.3,1.6 c0.2,1.2,1.1,2.1,2.3,2.3L7.2,3L5.6,3.3C4.5,3.6,3.6,4.5,3.3,5.6L3,7.2z"/></g>
<g transform="translate(186,527) scale(5.3216666666667)"><path d="M3,7.2L2.7,5.6C2.4,4.5,1.5,3.6,0.4,3.3L-1.2,3l1.6-0.3c1.2-0.2,2.1-1.1,2.3-2.3L3-1.2l0.3,1.6 c0.2,1.2,1.1,2.1,2.3,2.3L7.2,3L5.6,3.3C4.5,3.6,3.6,4.5,3.3,5.6L3,7.2z"/></g>
<g transform="translate(279,527) scale(5.3216666666667)"><path d="M3,7.2L2.7,5.6C2.4,4.5,1.5,3.6,0.4,3.3L-1.2,3l1.6-0.3c1.2-0.2,2.1-1.1,2.3-2.3L3-1.2l0.3,1.6 c0.2,1.2,1.1,2.1,2.3,2.3L7.2,3L5.6,3.3C4.5,3.6,3.6,4.5,3.3,5.6L3,7.2z"/></g>
<g transform="translate(310,527) scale(5.3216666666667)"><path d="M3,7.2L2.7,5.6C2.4,4.5,1.5,3.6,0.4,3.3L-1.2,3l1.6-0.3c1.2-0.2,2.1-1.1,2.3-2.3L3-1.2l0.3,1.6 c0.2,1.2,1.1,2.1,2.3,2.3L7.2,3L5.6,3.3C4.5,3.6,3.6,4.5,3.3,5.6L3,7.2z"/></g>
<g transform="translate(341,527) scale(5.3216666666667)"><path d="M3,7.2L2.7,5.6C2.4,4.5,1.5,3.6,0.4,3.3L-1.2,3l1.6-0.3c1.2-0.2,2.1-1.1,2.3-2.3L3-1.2l0.3,1.6 c0.2,1.2,1.1,2.1,2.3,2.3L7.2,3L5.6,3.3C4.5,3.6,3.6,4.5,3.3,5.6L3,7.2z"/></g>
<g transform="translate(372,527) scale(5.3216666666667)"><path d="M3,7.2L2.7,5.6C2.4,4.5,1.5,3.6,0.4,3.3L-1.2,3l1.6-0.3c1.2-0.2,2.1-1.1,2.3-2.3L3-1.2l0.3,1.6 c0.2,1.2,1.1,2.1,2.3,2.3L7.2,3L5.6,3.3C4.5,3.6,3.6,4.5,3.3,5.6L3,7.2z"/></g>
<g transform="translate(434,527) scale(5.3216666666667)"><path d="M3,7.2L2.7,5.6C2.4,4.5,1.5,3.6,0.4,3.3L-1.2,3l1.6-0.3c1.2-0.2,2.1-1.1,2.3-2.3L3-1.2l0.3,1.6 c0.2,1.2,1.1,2.1,2.3,2.3L7.2,3L5.6,3.3C4.5,3.6,3.6,4.5,3.3,5.6L3,7.2z"/></g>
<g transform="translate(527,527) scale(5.3216666666667)"><path d="M3,7.2L2.7,5.6C2.4,4.5,1.5,3.6,0.4,3.3L-1.2,3l1.6-0.3c1.2-0.2,2.1-1.1,2.3-2.3L3-1.2l0.3,1.6 c0.2,1.2,1.1,2.1,2.3,2.3L7.2,3L5.6,3.3C4.5,3.6,3.6,4.5,3.3,5.6L3,7.2z"/></g>
<g transform="translate(589,527) scale(5.3216666666667)"><path d="M3,7.2L2.7,5.6C2.4,4.5,1.5,3.6,0.4,3.3L-1.2,3l1.6-0.3c1.2-0.2,2.1-1.1,2.3-2.3L3-1.2l0.3,1.6 c0.2,1.2,1.1,2.1,2.3,2.3L7.2,3L5.6,3.3C4.5,3.6,3.6,4.5,3.3,5.6L3,7.2z"/></g>
<g transform="translate(620,527) scale(5.3216666666667)"><path d="M3,7.2L2.7,5.6C2.4,4.5,1.5,3.6,0.4,3.3L-1.2,3l1.6-0.3c1.2-0.2,2.1-1.1,2.3-2.3L3-1.2l0.3,1.6 c0.2,1.2,1.1,2.1,2.3,2.3L7.2,3L5.6,3.3C4.5,3.6,3.6,4.5,3.3,5.6L3,7.2z"/></g>
<g transform="translate(713,527) scale(5.3216666666667)"><path d="M3,7.2L2.7,5.6C2.4,4.5,1.5,3.6,0.4,3.3L-1.2,3l1.6-0.3c1.2-0.2,2.1-1.1,2.3-2.3L3-1.2l0.3,1.6 c0.2,1.2,1.1,2.1,2.3,2.3L7.2,3L5.6,3.3C4.5,3.6,3.6,4.5,3.3,5.6L3,7.2z"/></g>
<g transform="translate(744,527) scale(5.3216666666667)"><path d="M3,7.2L2.7,5.6C2.4,4.5,1.5,3.6,0.4,3.3L-1.2,3l1.6-0.3c1.2-0.2,2.1-1.1,2.3-2.3L3-1.2l0.3,1.6 c0.2,1.2,1.1,2.1,2.3,2.3L7.2,3L5.6,3.3C4.5,3.6,3.6,4.5,3.3,5.6L3,7.2z"/></g>
<g transform="translate(806,527) scale(5.3216666666667)"><path d="M3,7.2L2.7,5.6C2.4,4.5,1.5,3.6,0.4,3.3L-1.2,3l1.6-0.3c1.2-0.2,2.1-1.1,2.3-2.3L3-1.2l0.3,1.6 c0.2,1.2,1.1,2.1,2.3,2.3L7.2,3L5.6,3.3C4.5,3.6,3.6,4.5,3.3,5.6L3,7.2z"/></g>
<g transform="translate(837,527) scale(5.3216666666667)"><path d="M3,7.2L2.7,5.6C2.4,4.5,1.5,3.6,0.4,3.3L-1.2,3l1.6-0.3c1.2-0.2,2.1-1.1,2.3-2.3L3-1.2l0.3,1.6 c0.2,1.2,1.1,2.1,2.3,2.3L7.2,3L5.6,3.3C4.5,3.6,3.6,4.5,3.3,5.6L3,7.2z"/></g>
<g transform="translate(62,558) scale(5.3216666666667)"><path d="M3,7.2L2.7,5.6C2.4,4.5,1.5,3.6,0.4,3.3L-1.2,3l1.6-0.3c1.2-0.2,2.1-1.1,2.3-2.3L3-1.2l0.3,1.6 c0.2,1.2,1.1,2.1,2.3,2.3L7.2,3L5.6,3.3C4.5,3.6,3.6,4.5,3.3,5.6L3,7.2z"/></g>
<g transform="translate(93,558) scale(5.3216666666667)"><path d="M3,7.2L2.7,5.6C2.4,4.5,1.5,3.6,0.4,3.3L-1.2,3l1.6-0.3c1.2-0.2,2.1-1.1,2.3-2.3L3-1.2l0.3,1.6 c0.2,1.2,1.1,2.1,2.3,2.3L7.2,3L5.6,3.3C4.5,3.6,3.6,4.5,3.3,5.6L3,7.2z"/></g>
<g transform="translate(124,558) scale(5.3216666666667)"><path d="M3,7.2L2.7,5.6C2.4,4.5,1.5,3.6,0.4,3.3L-1.2,3l1.6-0.3c1.2-0.2,2.1-1.1,2.3-2.3L3-1.2l0.3,1.6 c0.2,1.2,1.1,2.1,2.3,2.3L7.2,3L5.6,3.3C4.5,3.6,3.6,4.5,3.3,5.6L3,7.2z"/></g>
<g transform="translate(155,558) scale(5.3216666666667)"><path d="M3,7.2L2.7,5.6C2.4,4.5,1.5,3.6,0.4,3.3L-1.2,3l1.6-0.3c1.2-0.2,2.1-1.1,2.3-2.3L3-1.2l0.3,1.6 c0.2,1.2,1.1,2.1,2.3,2.3L7.2,3L5.6,3.3C4.5,3.6,3.6,4.5,3.3,5.6L3,7.2z"/></g>
<g transform="translate(186,558) scale(5.3216666666667)"><path d="M3,7.2L2.7,5.6C2.4,4.5,1.5,3.6,0.4,3.3L-1.2,3l1.6-0.3c1.2-0.2,2.1-1.1,2.3-2.3L3-1.2l0.3,1.6 c0.2,1.2,1.1,2.1,2.3,2.3L7.2,3L5.6,3.3C4.5,3.6,3.6,4.5,3.3,5.6L3,7.2z"/></g>
<g transform="translate(217,558) scale(5.3216666666667)"><path d="M3,7.2L2.7,5.6C2.4,4.5,1.5,3.6,0.4,3.3L-1.2,3l1.6-0.3c1.2-0.2,2.1-1.1,2.3-2.3L3-1.2l0.3,1.6 c0.2,1.2,1.1,2.1,2.3,2.3L7.2,3L5.6,3.3C4.5,3.6,3.6,4.5,3.3,5.6L3,7.2z"/></g>
<g transform="translate(248,558) scale(5.3216666666667)"><path d="M3,7.2L2.7,5.6C2.4,4.5,1.5,3.6,0.4,3.3L-1.2,3l1.6-0.3c1.2-0.2,2.1-1.1,2.3-2.3L3-1.2l0.3,1.6 c0.2,1.2,1.1,2.1,2.3,2.3L7.2,3L5.6,3.3C4.5,3.6,3.6,4.5,3.3,5.6L3,7.2z"/></g>
<g transform="translate(279,558) scale(5.3216666666667)"><path d="M3,7.2L2.7,5.6C2.4,4.5,1.5,3.6,0.4,3.3L-1.2,3l1.6-0.3c1.2-0.2,2.1-1.1,2.3-2.3L3-1.2l0.3,1.6 c0.2,1.2,1.1,2.1,2.3,2.3L7.2,3L5.6,3.3C4.5,3.6,3.6,4.5,3.3,5.6L3,7.2z"/></g>
<g transform="translate(341,558) scale(5.3216666666667)"><path d="M3,7.2L2.7,5.6C2.4,4.5,1.5,3.6,0.4,3.3L-1.2,3l1.6-0.3c1.2-0.2,2.1-1.1,2.3-2.3L3-1.2l0.3,1.6 c0.2,1.2,1.1,2.1,2.3,2.3L7.2,3L5.6,3.3C4.5,3.6,3.6,4.5,3.3,5.6L3,7.2z"/></g>
<g transform="translate(372,558) scale(5.3216666666667)"><path d="M3,7.2L2.7,5.6C2.4,4.5,1.5,3.6,0.4,3.3L-1.2,3l1.6-0.3c1.2-0.2,2.1-1.1,2.3-2.3L3-1.2l0.3,1.6 c0.2,1.2,1.1,2.1,2.3,2.3L7.2,3L5.6,3.3C4.5,3.6,3.6,4.5,3.3,5.6L3,7.2z"/></g>
<g transform="translate(403,558) scale(5.3216666666667)"><path d="M3,7.2L2.7,5.6C2.4,4.5,1.5,3.6,0.4,3.3L-1.2,3l1.6-0.3c1.2-0.2,2.1-1.1,2.3-2.3L3-1.2l0.3,1.6 c0.2,1.2,1.1,2.1,2.3,2.3L7.2,3L5.6,3.3C4.5,3.6,3.6,4.5,3.3,5.6L3,7.2z"/></g>
<g transform="translate(496,558) scale(5.3216666666667)"><path d="M3,7.2L2.7,5.6C2.4,4.5,1.5,3.6,0.4,3.3L-1.2,3l1.6-0.3c1.2-0.2,2.1-1.1,2.3-2.3L3-1.2l0.3,1.6 c0.2,1.2,1.1,2.1,2.3,2.3L7.2,3L5.6,3.3C4.5,3.6,3.6,4.5,3.3,5.6L3,7.2z"/></g>
<g transform="translate(589,558) scale(5.3216666666667)"><path d="M3,7.2L2.7,5.6C2.4,4.5,1.5,3.6,0.4,3.3L-1.2,3l1.6-0.3c1.2-0.2,2.1-1.1,2.3-2.3L3-1.2l0.3,1.6 c0.2,1.2,1.1,2.1,2.3,2.3L7.2,3L5.6,3.3C4.5,3.6,3.6,4.5,3.3,5.6L3,7.2z"/></g>
<g transform="translate(620,558) scale(5.3216666666667)"><path d="M3,7.2L2.7,5.6C2.4,4.5,1.5,3.6,0.4,3.3L-1.2,3l1.6-0.3c1.2-0.2,2.1-1.1,2.3-2.3L3-1.2l0.3,1.6 c0.2,1.2,1.1,2.1,2.3,2.3L7.2,3L5.6,3.3C4.5,3.6,3.6,4.5,3.3,5.6L3,7.2z"/></g>
<g transform="translate(682,558) scale(5.3216666666667)"><path d="M3,7.2L2.7,5.6C2.4,4.5,1.5,3.6,0.4,3.3L-1.2,3l1.6-0.3c1.2-0.2,2.1-1.1,2.3-2.3L3-1.2l0.3,1.6 c0.2,1.2,1.1,2.1,2.3,2.3L7.2,3L5.6,3.3C4.5,3.6,3.6,4.5,3.3,5.6L3,7.2z"/></g>
<g transform="translate(806,558) scale(5.3216666666667)"><path d="M3,7.2L2.7,5.6C2.4,4.5,1.5,3.6,0.4,3.3L-1.2,3l1.6-0.3c1.2-0.2,2.1-1.1,2.3-2.3L3-1.2l0.3,1.6 c0.2,1.2,1.1,2.1,2.3,2.3L7.2,3L5.6,3.3C4.5,3.6,3.6,4.5,3.3,5.6L3,7.2z"/></g>
<g transform="translate(837,558) scale(5.3216666666667)"><path d="M3,7.2L2.7,5.6C2.4,4.5,1.5,3.6,0.4,3.3L-1.2,3l1.6-0.3c1.2-0.2,2.1-1.1,2.3-2.3L3-1.2l0.3,1.6 c0.2,1.2,1.1,2.1,2.3,2.3L7.2,3L5.6,3.3C4.5,3.6,3.6,4.5,3.3,5.6L3,7.2z"/></g>
<g transform="translate(868,558) scale(5.3216666666667)"><path d="M3,7.2L2.7,5.6C2.4,4.5,1.5,3.6,0.4,3.3L-1.2,3l1.6-0.3c1.2-0.2,2.1-1.1,2.3-2.3L3-1.2l0.3,1.6 c0.2,1.2,1.1,2.1,2.3,2.3L7.2,3L5.6,3.3C4.5,3.6,3.6,4.5,3.3,5.6L3,7.2z"/></g>
<g transform="translate(899,558) scale(5.3216666666667)"><path d="M3,7.2L2.7,5.6C2.4,4.5,1.5,3.6,0.4,3.3L-1.2,3l1.6-0.3c1.2-0.2,2.1-1.1,2.3-2.3L3-1.2l0.3,1.6 c0.2,1.2,1.1,2.1,2.3,2.3L7.2,3L5.6,3.3C4.5,3.6,3.6,4.5,3.3,5.6L3,7.2z"/></g>
<g transform="translate(930,558) scale(5.3216666666667)"><path d="M3,7.2L2.7,5.6C2.4,4.5,1.5,3.6,0.4,3.3L-1.2,3l1.6-0.3c1.2-0.2,2.1-1.1,2.3-2.3L3-1.2l0.3,1.6 c0.2,1.2,1.1,2.1,2.3,2.3L7.2,3L5.6,3.3C4.5,3.6,3.6,4.5,3.3,5.6L3,7.2z"/></g>
<g transform="translate(62,589) scale(5.3216666666667)"><path d="M3,7.2L2.7,5.6C2.4,4.5,1.5,3.6,0.4,3.3L-1.2,3l1.6-0.3c1.2-0.2,2.1-1.1,2.3-2.3L3-1.2l0.3,1.6 c0.2,1.2,1.1,2.1,2.3,2.3L7.2,3L5.6,3.3C4.5,3.6,3.6,4.5,3.3,5.6L3,7.2z"/></g>
<g transform="translate(93,589) scale(5.3216666666667)"><path d="M3,7.2L2.7,5.6C2.4,4.5,1.5,3.6,0.4,3.3L-1.2,3l1.6-0.3c1.2-0.2,2.1-1.1,2.3-2.3L3-1.2l0.3,1.6 c0.2,1.2,1.1,2.1,2.3,2.3L7.2,3L5.6,3.3C4.5,3.6,3.6,4.5,3.3,5.6L3,7.2z"/></g>
<g transform="translate(186,589) scale(5.3216666666667)"><path d="M3,7.2L2.7,5.6C2.4,4.5,1.5,3.6,0.4,3.3L-1.2,3l1.6-0.3c1.2-0.2,2.1-1.1,2.3-2.3L3-1.2l0.3,1.6 c0.2,1.2,1.1,2.1,2.3,2.3L7.2,3L5.6,3.3C4.5,3.6,3.6,4.5,3.3,5.6L3,7.2z"/></g>
<g transform="translate(217,589) scale(5.3216666666667)"><path d="M3,7.2L2.7,5.6C2.4,4.5,1.5,3.6,0.4,3.3L-1.2,3l1.6-0.3c1.2-0.2,2.1-1.1,2.3-2.3L3-1.2l0.3,1.6 c0.2,1.2,1.1,2.1,2.3,2.3L7.2,3L5.6,3.3C4.5,3.6,3.6,4.5,3.3,5.6L3,7.2z"/></g>
<g transform="translate(310,589) scale(5.3216666666667)"><path d="M3,7.2L2.7,5.6C2.4,4.5,1.5,3.6,0.4,3.3L-1.2,3l1.6-0.3c1.2-0.2,2.1-1.1,2.3-2.3L3-1.2l0.3,1.6 c0.2,1.2,1.1,2.1,2.3,2.3L7.2,3L5.6,3.3C4.5,3.6,3.6,4.5,3.3,5.6L3,7.2z"/></g>
<g transform="translate(372,589) scale(5.3216666666667)"><path d="M3,7.2L2.7,5.6C2.4,4.5,1.5,3.6,0.4,3.3L-1.2,3l1.6-0.3c1.2-0.2,2.1-1.1,2.3-2.3L3-1.2l0.3,1.6 c0.2,1.2,1.1,2.1,2.3,2.3L7.2,3L5.6,3.3C4.5,3.6,3.6,4.5,3.3,5.6L3,7.2z"/></g>
<g transform="translate(434,589) scale(5.3216666666667)"><path d="M3,7.2L2.7,5.6C2.4,4.5,1.5,3.6,0.4,3.3L-1.2,3l1.6-0.3c1.2-0.2,2.1-1.1,2.3-2.3L3-1.2l0.3,1.6 c0.2,1.2,1.1,2.1,2.3,2.3L7.2,3L5.6,3.3C4.5,3.6,3.6,4.5,3.3,5.6L3,7.2z"/></g>
<g transform="translate(527,589) scale(5.3216666666667)"><path d="M3,7.2L2.7,5.6C2.4,4.5,1.5,3.6,0.4,3.3L-1.2,3l1.6-0.3c1.2-0.2,2.1-1.1,2.3-2.3L3-1.2l0.3,1.6 c0.2,1.2,1.1,2.1,2.3,2.3L7.2,3L5.6,3.3C4.5,3.6,3.6,4.5,3.3,5.6L3,7.2z"/></g>
<g transform="translate(651,589) scale(5.3216666666667)"><path d="M3,7.2L2.7,5.6C2.4,4.5,1.5,3.6,0.4,3.3L-1.2,3l1.6-0.3c1.2-0.2,2.1-1.1,2.3-2.3L3-1.2l0.3,1.6 c0.2,1.2,1.1,2.1,2.3,2.3L7.2,3L5.6,3.3C4.5,3.6,3.6,4.5,3.3,5.6L3,7.2z"/></g>
<g transform="translate(744,589) scale(5.3216666666667)"><path d="M3,7.2L2.7,5.6C2.4,4.5,1.5,3.6,0.4,3.3L-1.2,3l1.6-0.3c1.2-0.2,2.1-1.1,2.3-2.3L3-1.2l0.3,1.6 c0.2,1.2,1.1,2.1,2.3,2.3L7.2,3L5.6,3.3C4.5,3.6,3.6,4.5,3.3,5.6L3,7.2z"/></g>
<g transform="translate(775,589) scale(5.3216666666667)"><path d="M3,7.2L2.7,5.6C2.4,4.5,1.5,3.6,0.4,3.3L-1.2,3l1.6-0.3c1.2-0.2,2.1-1.1,2.3-2.3L3-1.2l0.3,1.6 c0.2,1.2,1.1,2.1,2.3,2.3L7.2,3L5.6,3.3C4.5,3.6,3.6,4.5,3.3,5.6L3,7.2z"/></g>
<g transform="translate(806,589) scale(5.3216666666667)"><path d="M3,7.2L2.7,5.6C2.4,4.5,1.5,3.6,0.4,3.3L-1.2,3l1.6-0.3c1.2-0.2,2.1-1.1,2.3-2.3L3-1.2l0.3,1.6 c0.2,1.2,1.1,2.1,2.3,2.3L7.2,3L5.6,3.3C4.5,3.6,3.6,4.5,3.3,5.6L3,7.2z"/></g>
<g transform="translate(868,589) scale(5.3216666666667)"><path d="M3,7.2L2.7,5.6C2.4,4.5,1.5,3.6,0.4,3.3L-1.2,3l1.6-0.3c1.2-0.2,2.1-1.1,2.3-2.3L3-1.2l0.3,1.6 c0.2,1.2,1.1,2.1,2.3,2.3L7.2,3L5.6,3.3C4.5,3.6,3.6,4.5,3.3,5.6L3,7.2z"/></g>
<g transform="translate(899,589) scale(5.3216666666667)"><path d="M3,7.2L2.7,5.6C2.4,4.5,1.5,3.6,0.4,3.3L-1.2,3l1.6-0.3c1.2-0.2,2.1-1.1,2.3-2.3L3-1.2l0.3,1.6 c0.2,1.2,1.1,2.1,2.3,2.3L7.2,3L5.6,3.3C4.5,3.6,3.6,4.5,3.3,5.6L3,7.2z"/></g>
<g transform="translate(930,589) scale(5.3216666666667)"><path d="M3,7.2L2.7,5.6C2.4,4.5,1.5,3.6,0.4,3.3L-1.2,3l1.6-0.3c1.2-0.2,2.1-1.1,2.3-2.3L3-1.2l0.3,1.6 c0.2,1.2,1.1,2.1,2.3,2.3L7.2,3L5.6,3.3C4.5,3.6,3.6,4.5,3.3,5.6L3,7.2z"/></g>
<g transform="translate(62,620) scale(5.3216666666667)"><path d="M3,7.2L2.7,5.6C2.4,4.5,1.5,3.6,0.4,3.3L-1.2,3l1.6-0.3c1.2-0.2,2.1-1.1,2.3-2.3L3-1.2l0.3,1.6 c0.2,1.2,1.1,2.1,2.3,2.3L7.2,3L5.6,3.3C4.5,3.6,3.6,4.5,3.3,5.6L3,7.2z"/></g>
<g transform="translate(186,620) scale(5.3216666666667)"><path d="M3,7.2L2.7,5.6C2.4,4.5,1.5,3.6,0.4,3.3L-1.2,3l1.6-0.3c1.2-0.2,2.1-1.1,2.3-2.3L3-1.2l0.3,1.6 c0.2,1.2,1.1,2.1,2.3,2.3L7.2,3L5.6,3.3C4.5,3.6,3.6,4.5,3.3,5.6L3,7.2z"/></g>
<g transform="translate(217,620) scale(5.3216666666667)"><path d="M3,7.2L2.7,5.6C2.4,4.5,1.5,3.6,0.4,3.3L-1.2,3l1.6-0.3c1.2-0.2,2.1-1.1,2.3-2.3L3-1.2l0.3,1.6 c0.2,1.2,1.1,2.1,2.3,2.3L7.2,3L5.6,3.3C4.5,3.6,3.6,4.5,3.3,5.6L3,7.2z"/></g>
<g transform="translate(248,620) scale(5.3216666666667)"><path d="M3,7.2L2.7,5.6C2.4,4.5,1.5,3.6,0.4,3.3L-1.2,3l1.6-0.3c1.2-0.2,2.1-1.1,2.3-2.3L3-1.2l0.3,1.6 c0.2,1.2,1.1,2.1,2.3,2.3L7.2,3L5.6,3.3C4.5,3.6,3.6,4.5,3.3,5.6L3,7.2z"/></g>
<g transform="translate(279,620) scale(5.3216666666667)"><path d="M3,7.2L2.7,5.6C2.4,4.5,1.5,3.6,0.4,3.3L-1.2,3l1.6-0.3c1.2-0.2,2.1-1.1,2.3-2.3L3-1.2l0.3,1.6 c0.2,1.2,1.1,2.1,2.3,2.3L7.2,3L5.6,3.3C4.5,3.6,3.6,4.5,3.3,5.6L3,7.2z"/></g>
<g transform="translate(341,620) scale(5.3216666666667)"><path d="M3,7.2L2.7,5.6C2.4,4.5,1.5,3.6,0.4,3.3L-1.2,3l1.6-0.3c1.2-0.2,2.1-1.1,2.3-2.3L3-1.2l0.3,1.6 c0.2,1.2,1.1,2.1,2.3,2.3L7.2,3L5.6,3.3C4.5,3.6,3.6,4.5,3.3,5.6L3,7.2z"/></g>
<g transform="translate(403,620) scale(5.3216666666667)"><path d="M3,7.2L2.7,5.6C2.4,4.5,1.5,3.6,0.4,3.3L-1.2,3l1.6-0.3c1.2-0.2,2.1-1.1,2.3-2.3L3-1.2l0.3,1.6 c0.2,1.2,1.1,2.1,2.3,2.3L7.2,3L5.6,3.3C4.5,3.6,3.6,4.5,3.3,5.6L3,7.2z"/></g>
<g transform="translate(434,620) scale(5.3216666666667)"><path d="M3,7.2L2.7,5.6C2.4,4.5,1.5,3.6,0.4,3.3L-1.2,3l1.6-0.3c1.2-0.2,2.1-1.1,2.3-2.3L3-1.2l0.3,1.6 c0.2,1.2,1.1,2.1,2.3,2.3L7.2,3L5.6,3.3C4.5,3.6,3.6,4.5,3.3,5.6L3,7.2z"/></g>
<g transform="translate(465,620) scale(5.3216666666667)"><path d="M3,7.2L2.7,5.6C2.4,4.5,1.5,3.6,0.4,3.3L-1.2,3l1.6-0.3c1.2-0.2,2.1-1.1,2.3-2.3L3-1.2l0.3,1.6 c0.2,1.2,1.1,2.1,2.3,2.3L7.2,3L5.6,3.3C4.5,3.6,3.6,4.5,3.3,5.6L3,7.2z"/></g>
<g transform="translate(558,620) scale(5.3216666666667)"><path d="M3,7.2L2.7,5.6C2.4,4.5,1.5,3.6,0.4,3.3L-1.2,3l1.6-0.3c1.2-0.2,2.1-1.1,2.3-2.3L3-1.2l0.3,1.6 c0.2,1.2,1.1,2.1,2.3,2.3L7.2,3L5.6,3.3C4.5,3.6,3.6,4.5,3.3,5.6L3,7.2z"/></g>
<g transform="translate(620,620) scale(5.3216666666667)"><path d="M3,7.2L2.7,5.6C2.4,4.5,1.5,3.6,0.4,3.3L-1.2,3l1.6-0.3c1.2-0.2,2.1-1.1,2.3-2.3L3-1.2l0.3,1.6 c0.2,1.2,1.1,2.1,2.3,2.3L7.2,3L5.6,3.3C4.5,3.6,3.6,4.5,3.3,5.6L3,7.2z"/></g>
<g transform="translate(744,620) scale(5.3216666666667)"><path d="M3,7.2L2.7,5.6C2.4,4.5,1.5,3.6,0.4,3.3L-1.2,3l1.6-0.3c1.2-0.2,2.1-1.1,2.3-2.3L3-1.2l0.3,1.6 c0.2,1.2,1.1,2.1,2.3,2.3L7.2,3L5.6,3.3C4.5,3.6,3.6,4.5,3.3,5.6L3,7.2z"/></g>
<g transform="translate(837,620) scale(5.3216666666667)"><path d="M3,7.2L2.7,5.6C2.4,4.5,1.5,3.6,0.4,3.3L-1.2,3l1.6-0.3c1.2-0.2,2.1-1.1,2.3-2.3L3-1.2l0.3,1.6 c0.2,1.2,1.1,2.1,2.3,2.3L7.2,3L5.6,3.3C4.5,3.6,3.6,4.5,3.3,5.6L3,7.2z"/></g>
<g transform="translate(868,620) scale(5.3216666666667)"><path d="M3,7.2L2.7,5.6C2.4,4.5,1.5,3.6,0.4,3.3L-1.2,3l1.6-0.3c1.2-0.2,2.1-1.1,2.3-2.3L3-1.2l0.3,1.6 c0.2,1.2,1.1,2.1,2.3,2.3L7.2,3L5.6,3.3C4.5,3.6,3.6,4.5,3.3,5.6L3,7.2z"/></g>
<g transform="translate(62,651) scale(5.3216666666667)"><path d="M3,7.2L2.7,5.6C2.4,4.5,1.5,3.6,0.4,3.3L-1.2,3l1.6-0.3c1.2-0.2,2.1-1.1,2.3-2.3L3-1.2l0.3,1.6 c0.2,1.2,1.1,2.1,2.3,2.3L7.2,3L5.6,3.3C4.5,3.6,3.6,4.5,3.3,5.6L3,7.2z"/></g>
<g transform="translate(124,651) scale(5.3216666666667)"><path d="M3,7.2L2.7,5.6C2.4,4.5,1.5,3.6,0.4,3.3L-1.2,3l1.6-0.3c1.2-0.2,2.1-1.1,2.3-2.3L3-1.2l0.3,1.6 c0.2,1.2,1.1,2.1,2.3,2.3L7.2,3L5.6,3.3C4.5,3.6,3.6,4.5,3.3,5.6L3,7.2z"/></g>
<g transform="translate(186,651) scale(5.3216666666667)"><path d="M3,7.2L2.7,5.6C2.4,4.5,1.5,3.6,0.4,3.3L-1.2,3l1.6-0.3c1.2-0.2,2.1-1.1,2.3-2.3L3-1.2l0.3,1.6 c0.2,1.2,1.1,2.1,2.3,2.3L7.2,3L5.6,3.3C4.5,3.6,3.6,4.5,3.3,5.6L3,7.2z"/></g>
<g transform="translate(279,651) scale(5.3216666666667)"><path d="M3,7.2L2.7,5.6C2.4,4.5,1.5,3.6,0.4,3.3L-1.2,3l1.6-0.3c1.2-0.2,2.1-1.1,2.3-2.3L3-1.2l0.3,1.6 c0.2,1.2,1.1,2.1,2.3,2.3L7.2,3L5.6,3.3C4.5,3.6,3.6,4.5,3.3,5.6L3,7.2z"/></g>
<g transform="translate(372,651) scale(5.3216666666667)"><path d="M3,7.2L2.7,5.6C2.4,4.5,1.5,3.6,0.4,3.3L-1.2,3l1.6-0.3c1.2-0.2,2.1-1.1,2.3-2.3L3-1.2l0.3,1.6 c0.2,1.2,1.1,2.1,2.3,2.3L7.2,3L5.6,3.3C4.5,3.6,3.6,4.5,3.3,5.6L3,7.2z"/></g>
<g transform="translate(434,651) scale(5.3216666666667)"><path d="M3,7.2L2.7,5.6C2.4,4.5,1.5,3.6,0.4,3.3L-1.2,3l1.6-0.3c1.2-0.2,2.1-1.1,2.3-2.3L3-1.2l0.3,1.6 c0.2,1.2,1.1,2.1,2.3,2.3L7.2,3L5.6,3.3C4.5,3.6,3.6,4.5,3.3,5.6L3,7.2z"/></g>
<g transform="translate(465,651) scale(5.3216666666667)"><path d="M3,7.2L2.7,5.6C2.4,4.5,1.5,3.6,0.4,3.3L-1.2,3l1.6-0.3c1.2-0.2,2.1-1.1,2.3-2.3L3-1.2l0.3,1.6 c0.2,1.2,1.1,2.1,2.3,2.3L7.2,3L5.6,3.3C4.5,3.6,3.6,4.5,3.3,5.6L3,7.2z"/></g>
<g transform="translate(496,651) scale(5.3216666666667)"><path d="M3,7.2L2.7,5.6C2.4,4.5,1.5,3.6,0.4,3.3L-1.2,3l1.6-0.3c1.2-0.2,2.1-1.1,2.3-2.3L3-1.2l0.3,1.6 c0.2,1.2,1.1,2.1,2.3,2.3L7.2,3L5.6,3.3C4.5,3.6,3.6,4.5,3.3,5.6L3,7.2z"/></g>
<g transform="translate(558,651) scale(5.3216666666667)"><path d="M3,7.2L2.7,5.6C2.4,4.5,1.5,3.6,0.4,3.3L-1.2,3l1.6-0.3c1.2-0.2,2.1-1.1,2.3-2.3L3-1.2l0.3,1.6 c0.2,1.2,1.1,2.1,2.3,2.3L7.2,3L5.6,3.3C4.5,3.6,3.6,4.5,3.3,5.6L3,7.2z"/></g>
<g transform="translate(744,651) scale(5.3216666666667)"><path d="M3,7.2L2.7,5.6C2.4,4.5,1.5,3.6,0.4,3.3L-1.2,3l1.6-0.3c1.2-0.2,2.1-1.1,2.3-2.3L3-1.2l0.3,1.6 c0.2,1.2,1.1,2.1,2.3,2.3L7.2,3L5.6,3.3C4.5,3.6,3.6,4.5,3.3,5.6L3,7.2z"/></g>
<g transform="translate(899,651) scale(5.3216666666667)"><path d="M3,7.2L2.7,5.6C2.4,4.5,1.5,3.6,0.4,3.3L-1.2,3l1.6-0.3c1.2-0.2,2.1-1.1,2.3-2.3L3-1.2l0.3,1.6 c0.2,1.2,1.1,2.1,2.3,2.3L7.2,3L5.6,3.3C4.5,3.6,3.6,4.5,3.3,5.6L3,7.2z"/></g>
<g transform="translate(930,651) scale(5.3216666666667)"><path d="M3,7.2L2.7,5.6C2.4,4.5,1.5,3.6,0.4,3.3L-1.2,3l1.6-0.3c1.2-0.2,2.1-1.1,2.3-2.3L3-1.2l0.3,1.6 c0.2,1.2,1.1,2.1,2.3,2.3L7.2,3L5.6,3.3C4.5,3.6,3.6,4.5,3.3,5.6L3,7.2z"/></g>
<g transform="translate(62,682) scale(5.3216666666667)"><path d="M3,7.2L2.7,5.6C2.4,4.5,1.5,3.6,0.4,3.3L-1.2,3l1.6-0.3c1.2-0.2,2.1-1.1,2.3-2.3L3-1.2l0.3,1.6 c0.2,1.2,1.1,2.1,2.3,2.3L7.2,3L5.6,3.3C4.5,3.6,3.6,4.5,3.3,5.6L3,7.2z"/></g>
<g transform="translate(124,682) scale(5.3216666666667)"><path d="M3,7.2L2.7,5.6C2.4,4.5,1.5,3.6,0.4,3.3L-1.2,3l1.6-0.3c1.2-0.2,2.1-1.1,2.3-2.3L3-1.2l0.3,1.6 c0.2,1.2,1.1,2.1,2.3,2.3L7.2,3L5.6,3.3C4.5,3.6,3.6,4.5,3.3,5.6L3,7.2z"/></g>
<g transform="translate(155,682) scale(5.3216666666667)"><path d="M3,7.2L2.7,5.6C2.4,4.5,1.5,3.6,0.4,3.3L-1.2,3l1.6-0.3c1.2-0.2,2.1-1.1,2.3-2.3L3-1.2l0.3,1.6 c0.2,1.2,1.1,2.1,2.3,2.3L7.2,3L5.6,3.3C4.5,3.6,3.6,4.5,3.3,5.6L3,7.2z"/></g>
<g transform="translate(217,682) scale(5.3216666666667)"><path d="M3,7.2L2.7,5.6C2.4,4.5,1.5,3.6,0.4,3.3L-1.2,3l1.6-0.3c1.2-0.2,2.1-1.1,2.3-2.3L3-1.2l0.3,1.6 c0.2,1.2,1.1,2.1,2.3,2.3L7.2,3L5.6,3.3C4.5,3.6,3.6,4.5,3.3,5.6L3,7.2z"/></g>
<g transform="translate(248,682) scale(5.3216666666667)"><path d="M3,7.2L2.7,5.6C2.4,4.5,1.5,3.6,0.4,3.3L-1.2,3l1.6-0.3c1.2-0.2,2.1-1.1,2.3-2.3L3-1.2l0.3,1.6 c0.2,1.2,1.1,2.1,2.3,2.3L7.2,3L5.6,3.3C4.5,3.6,3.6,4.5,3.3,5.6L3,7.2z"/></g>
<g transform="translate(279,682) scale(5.3216666666667)"><path d="M3,7.2L2.7,5.6C2.4,4.5,1.5,3.6,0.4,3.3L-1.2,3l1.6-0.3c1.2-0.2,2.1-1.1,2.3-2.3L3-1.2l0.3,1.6 c0.2,1.2,1.1,2.1,2.3,2.3L7.2,3L5.6,3.3C4.5,3.6,3.6,4.5,3.3,5.6L3,7.2z"/></g>
<g transform="translate(310,682) scale(5.3216666666667)"><path d="M3,7.2L2.7,5.6C2.4,4.5,1.5,3.6,0.4,3.3L-1.2,3l1.6-0.3c1.2-0.2,2.1-1.1,2.3-2.3L3-1.2l0.3,1.6 c0.2,1.2,1.1,2.1,2.3,2.3L7.2,3L5.6,3.3C4.5,3.6,3.6,4.5,3.3,5.6L3,7.2z"/></g>
<g transform="translate(403,682) scale(5.3216666666667)"><path d="M3,7.2L2.7,5.6C2.4,4.5,1.5,3.6,0.4,3.3L-1.2,3l1.6-0.3c1.2-0.2,2.1-1.1,2.3-2.3L3-1.2l0.3,1.6 c0.2,1.2,1.1,2.1,2.3,2.3L7.2,3L5.6,3.3C4.5,3.6,3.6,4.5,3.3,5.6L3,7.2z"/></g>
<g transform="translate(434,682) scale(5.3216666666667)"><path d="M3,7.2L2.7,5.6C2.4,4.5,1.5,3.6,0.4,3.3L-1.2,3l1.6-0.3c1.2-0.2,2.1-1.1,2.3-2.3L3-1.2l0.3,1.6 c0.2,1.2,1.1,2.1,2.3,2.3L7.2,3L5.6,3.3C4.5,3.6,3.6,4.5,3.3,5.6L3,7.2z"/></g>
<g transform="translate(496,682) scale(5.3216666666667)"><path d="M3,7.2L2.7,5.6C2.4,4.5,1.5,3.6,0.4,3.3L-1.2,3l1.6-0.3c1.2-0.2,2.1-1.1,2.3-2.3L3-1.2l0.3,1.6 c0.2,1.2,1.1,2.1,2.3,2.3L7.2,3L5.6,3.3C4.5,3.6,3.6,4.5,3.3,5.6L3,7.2z"/></g>
<g transform="translate(558,682) scale(5.3216666666667)"><path d="M3,7.2L2.7,5.6C2.4,4.5,1.5,3.6,0.4,3.3L-1.2,3l1.6-0.3c1.2-0.2,2.1-1.1,2.3-2.3L3-1.2l0.3,1.6 c0.2,1.2,1.1,2.1,2.3,2.3L7.2,3L5.6,3.3C4.5,3.6,3.6,4.5,3.3,5.6L3,7.2z"/></g>
<g transform="translate(682,682) scale(5.3216666666667)"><path d="M3,7.2L2.7,5.6C2.4,4.5,1.5,3.6,0.4,3.3L-1.2,3l1.6-0.3c1.2-0.2,2.1-1.1,2.3-2.3L3-1.2l0.3,1.6 c0.2,1.2,1.1,2.1,2.3,2.3L7.2,3L5.6,3.3C4.5,3.6,3.6,4.5,3.3,5.6L3,7.2z"/></g>
<g transform="translate(713,682) scale(5.3216666666667)"><path d="M3,7.2L2.7,5.6C2.4,4.5,1.5,3.6,0.4,3.3L-1.2,3l1.6-0.3c1.2-0.2,2.1-1.1,2.3-2.3L3-1.2l0.3,1.6 c0.2,1.2,1.1,2.1,2.3,2.3L7.2,3L5.6,3.3C4.5,3.6,3.6,4.5,3.3,5.6L3,7.2z"/></g>
<g transform="translate(744,682) scale(5.3216666666667)"><path d="M3,7.2L2.7,5.6C2.4,4.5,1.5,3.6,0.4,3.3L-1.2,3l1.6-0.3c1.2-0.2,2.1-1.1,2.3-2.3L3-1.2l0.3,1.6 c0.2,1.2,1.1,2.1,2.3,2.3L7.2,3L5.6,3.3C4.5,3.6,3.6,4.5,3.3,5.6L3,7.2z"/></g>
<g transform="translate(775,682) scale(5.3216666666667)"><path d="M3,7.2L2.7,5.6C2.4,4.5,1.5,3.6,0.4,3.3L-1.2,3l1.6-0.3c1.2-0.2,2.1-1.1,2.3-2.3L3-1.2l0.3,1.6 c0.2,1.2,1.1,2.1,2.3,2.3L7.2,3L5.6,3.3C4.5,3.6,3.6,4.5,3.3,5.6L3,7.2z"/></g>
<g transform="translate(806,682) scale(5.3216666666667)"><path d="M3,7.2L2.7,5.6C2.4,4.5,1.5,3.6,0.4,3.3L-1.2,3l1.6-0.3c1.2-0.2,2.1-1.1,2.3-2.3L3-1.2l0.3,1.6 c0.2,1.2,1.1,2.1,2.3,2.3L7.2,3L5.6,3.3C4.5,3.6,3.6,4.5,3.3,5.6L3,7.2z"/></g>
<g transform="translate(868,682) scale(5.3216666666667)"><path d="M3,7.2L2.7,5.6C2.4,4.5,1.5,3.6,0.4,3.3L-1.2,3l1.6-0.3c1.2-0.2,2.1-1.1,2.3-2.3L3-1.2l0.3,1.6 c0.2,1.2,1.1,2.1,2.3,2.3L7.2,3L5.6,3.3C4.5,3.6,3.6,4.5,3.3,5.6L3,7.2z"/></g>
<g transform="translate(310,713) scale(5.3216666666667)"><path d="M3,7.2L2.7,5.6C2.4,4.5,1.5,3.6,0.4,3.3L-1.2,3l1.6-0.3c1.2-0.2,2.1-1.1,2.3-2.3L3-1.2l0.3,1.6 c0.2,1.2,1.1,2.1,2.3,2.3L7.2,3L5.6,3.3C4.5,3.6,3.6,4.5,3.3,5.6L3,7.2z"/></g>
<g transform="translate(341,713) scale(5.3216666666667)"><path d="M3,7.2L2.7,5.6C2.4,4.5,1.5,3.6,0.4,3.3L-1.2,3l1.6-0.3c1.2-0.2,2.1-1.1,2.3-2.3L3-1.2l0.3,1.6 c0.2,1.2,1.1,2.1,2.3,2.3L7.2,3L5.6,3.3C4.5,3.6,3.6,4.5,3.3,5.6L3,7.2z"/></g>
<g transform="translate(372,713) scale(5.3216666666667)"><path d="M3,7.2L2.7,5.6C2.4,4.5,1.5,3.6,0.4,3.3L-1.2,3l1.6-0.3c1.2-0.2,2.1-1.1,2.3-2.3L3-1.2l0.3,1.6 c0.2,1.2,1.1,2.1,2.3,2.3L7.2,3L5.6,3.3C4.5,3.6,3.6,4.5,3.3,5.6L3,7.2z"/></g>
<g transform="translate(403,713) scale(5.3216666666667)"><path d="M3,7.2L2.7,5.6C2.4,4.5,1.5,3.6,0.4,3.3L-1.2,3l1.6-0.3c1.2-0.2,2.1-1.1,2.3-2.3L3-1.2l0.3,1.6 c0.2,1.2,1.1,2.1,2.3,2.3L7.2,3L5.6,3.3C4.5,3.6,3.6,4.5,3.3,5.6L3,7.2z"/></g>
<g transform="translate(434,713) scale(5.3216666666667)"><path d="M3,7.2L2.7,5.6C2.4,4.5,1.5,3.6,0.4,3.3L-1.2,3l1.6-0.3c1.2-0.2,2.1-1.1,2.3-2.3L3-1.2l0.3,1.6 c0.2,1.2,1.1,2.1,2.3,2.3L7.2,3L5.6,3.3C4.5,3.6,3.6,4.5,3.3,5.6L3,7.2z"/></g>
<g transform="translate(496,713) scale(5.3216666666667)"><path d="M3,7.2L2.7,5.6C2.4,4.5,1.5,3.6,0.4,3.3L-1.2,3l1.6-0.3c1.2-0.2,2.1-1.1,2.3-2.3L3-1.2l0.3,1.6 c0.2,1.2,1.1,2.1,2.3,2.3L7.2,3L5.6,3.3C4.5,3.6,3.6,4.5,3.3,5.6L3,7.2z"/></g>
<g transform="translate(527,713) scale(5.3216666666667)"><path d="M3,7.2L2.7,5.6C2.4,4.5,1.5,3.6,0.4,3.3L-1.2,3l1.6-0.3c1.2-0.2,2.1-1.1,2.3-2.3L3-1.2l0.3,1.6 c0.2,1.2,1.1,2.1,2.3,2.3L7.2,3L5.6,3.3C4.5,3.6,3.6,4.5,3.3,5.6L3,7.2z"/></g>
<g transform="translate(589,713) scale(5.3216666666667)"><path d="M3,7.2L2.7,5.6C2.4,4.5,1.5,3.6,0.4,3.3L-1.2,3l1.6-0.3c1.2-0.2,2.1-1.1,2.3-2.3L3-1.2l0.3,1.6 c0.2,1.2,1.1,2.1,2.3,2.3L7.2,3L5.6,3.3C4.5,3.6,3.6,4.5,3.3,5.6L3,7.2z"/></g>
<g transform="translate(620,713) scale(5.3216666666667)"><path d="M3,7.2L2.7,5.6C2.4,4.5,1.5,3.6,0.4,3.3L-1.2,3l1.6-0.3c1.2-0.2,2.1-1.1,2.3-2.3L3-1.2l0.3,1.6 c0.2,1.2,1.1,2.1,2.3,2.3L7.2,3L5.6,3.3C4.5,3.6,3.6,4.5,3.3,5.6L3,7.2z"/></g>
<g transform="translate(651,713) scale(5.3216666666667)"><path d="M3,7.2L2.7,5.6C2.4,4.5,1.5,3.6,0.4,3.3L-1.2,3l1.6-0.3c1.2-0.2,2.1-1.1,2.3-2.3L3-1.2l0.3,1.6 c0.2,1.2,1.1,2.1,2.3,2.3L7.2,3L5.6,3.3C4.5,3.6,3.6,4.5,3.3,5.6L3,7.2z"/></g>
<g transform="translate(682,713) scale(5.3216666666667)"><path d="M3,7.2L2.7,5.6C2.4,4.5,1.5,3.6,0.4,3.3L-1.2,3l1.6-0.3c1.2-0.2,2.1-1.1,2.3-2.3L3-1.2l0.3,1.6 c0.2,1.2,1.1,2.1,2.3,2.3L7.2,3L5.6,3.3C4.5,3.6,3.6,4.5,3.3,5.6L3,7.2z"/></g>
<g transform="translate(806,713) scale(5.3216666666667)"><path d="M3,7.2L2.7,5.6C2.4,4.5,1.5,3.6,0.4,3.3L-1.2,3l1.6-0.3c1.2-0.2,2.1-1.1,2.3-2.3L3-1.2l0.3,1.6 c0.2,1.2,1.1,2.1,2.3,2.3L7.2,3L5.6,3.3C4.5,3.6,3.6,4.5,3.3,5.6L3,7.2z"/></g>
<g transform="translate(837,713) scale(5.3216666666667)"><path d="M3,7.2L2.7,5.6C2.4,4.5,1.5,3.6,0.4,3.3L-1.2,3l1.6-0.3c1.2-0.2,2.1-1.1,2.3-2.3L3-1.2l0.3,1.6 c0.2,1.2,1.1,2.1,2.3,2.3L7.2,3L5.6,3.3C4.5,3.6,3.6,4.5,3.3,5.6L3,7.2z"/></g>
<g transform="translate(899,713) scale(5.3216666666667)"><path d="M3,7.2L2.7,5.6C2.4,4.5,1.5,3.6,0.4,3.3L-1.2,3l1.6-0.3c1.2-0.2,2.1-1.1,2.3-2.3L3-1.2l0.3,1.6 c0.2,1.2,1.1,2.1,2.3,2.3L7.2,3L5.6,3.3C4.5,3.6,3.6,4.5,3.3,5.6L3,7.2z"/></g>
<g transform="translate(930,713) scale(5.3216666666667)"><path d="M3,7.2L2.7,5.6C2.4,4.5,1.5,3.6,0.4,3.3L-1.2,3l1.6-0.3c1.2-0.2,2.1-1.1,2.3-2.3L3-1.2l0.3,1.6 c0.2,1.2,1.1,2.1,2.3,2.3L7.2,3L5.6,3.3C4.5,3.6,3.6,4.5,3.3,5.6L3,7.2z"/></g>
<g transform="translate(341,744) scale(5.3216666666667)"><path d="M3,7.2L2.7,5.6C2.4,4.5,1.5,3.6,0.4,3.3L-1.2,3l1.6-0.3c1.2-0.2,2.1-1.1,2.3-2.3L3-1.2l0.3,1.6 c0.2,1.2,1.1,2.1,2.3,2.3L7.2,3L5.6,3.3C4.5,3.6,3.6,4.5,3.3,5.6L3,7.2z"/></g>
<g transform="translate(403,744) scale(5.3216666666667)"><path d="M3,7.2L2.7,5.6C2.4,4.5,1.5,3.6,0.4,3.3L-1.2,3l1.6-0.3c1.2-0.2,2.1-1.1,2.3-2.3L3-1.2l0.3,1.6 c0.2,1.2,1.1,2.1,2.3,2.3L7.2,3L5.6,3.3C4.5,3.6,3.6,4.5,3.3,5.6L3,7.2z"/></g>
<g transform="translate(527,744) scale(5.3216666666667)"><path d="M3,7.2L2.7,5.6C2.4,4.5,1.5,3.6,0.4,3.3L-1.2,3l1.6-0.3c1.2-0.2,2.1-1.1,2.3-2.3L3-1.2l0.3,1.6 c0.2,1.2,1.1,2.1,2.3,2.3L7.2,3L5.6,3.3C4.5,3.6,3.6,4.5,3.3,5.6L3,7.2z"/></g>
<g transform="translate(589,744) scale(5.3216666666667)"><path d="M3,7.2L2.7,5.6C2.4,4.5,1.5,3.6,0.4,3.3L-1.2,3l1.6-0.3c1.2-0.2,2.1-1.1,2.3-2.3L3-1.2l0.3,1.6 c0.2,1.2,1.1,2.1,2.3,2.3L7.2,3L5.6,3.3C4.5,3.6,3.6,4.5,3.3,5.6L3,7.2z"/></g>
<g transform="translate(651,744) scale(5.3216666666667)"><path d="M3,7.2L2.7,5.6C2.4,4.5,1.5,3.6,0.4,3.3L-1.2,3l1.6-0.3c1.2-0.2,2.1-1.1,2.3-2.3L3-1.2l0.3,1.6 c0.2,1.2,1.1,2.1,2.3,2.3L7.2,3L5.6,3.3C4.5,3.6,3.6,4.5,3.3,5.6L3,7.2z"/></g>
<g transform="translate(682,744) scale(5.3216666666667)"><path d="M3,7.2L2.7,5.6C2.4,4.5,1.5,3.6,0.4,3.3L-1.2,3l1.6-0.3c1.2-0.2,2.1-1.1,2.3-2.3L3-1.2l0.3,1.6 c0.2,1.2,1.1,2.1,2.3,2.3L7.2,3L5.6,3.3C4.5,3.6,3.6,4.5,3.3,5.6L3,7.2z"/></g>
<g transform="translate(744,744) scale(5.3216666666667)"><path d="M3,7.2L2.7,5.6C2.4,4.5,1.5,3.6,0.4,3.3L-1.2,3l1.6-0.3c1.2-0.2,2.1-1.1,2.3-2.3L3-1.2l0.3,1.6 c0.2,1.2,1.1,2.1,2.3,2.3L7.2,3L5.6,3.3C4.5,3.6,3.6,4.5,3.3,5.6L3,7.2z"/></g>
<g transform="translate(806,744) scale(5.3216666666667)"><path d="M3,7.2L2.7,5.6C2.4,4.5,1.5,3.6,0.4,3.3L-1.2,3l1.6-0.3c1.2-0.2,2.1-1.1,2.3-2.3L3-1.2l0.3,1.6 c0.2,1.2,1.1,2.1,2.3,2.3L7.2,3L5.6,3.3C4.5,3.6,3.6,4.5,3.3,5.6L3,7.2z"/></g>
<g transform="translate(341,775) scale(5.3216666666667)"><path d="M3,7.2L2.7,5.6C2.4,4.5,1.5,3.6,0.4,3.3L-1.2,3l1.6-0.3c1.2-0.2,2.1-1.1,2.3-2.3L3-1.2l0.3,1.6 c0.2,1.2,1.1,2.1,2.3,2.3L7.2,3L5.6,3.3C4.5,3.6,3.6,4.5,3.3,5.6L3,7.2z"/></g>
<g transform="translate(372,775) scale(5.3216666666667)"><path d="M3,7.2L2.7,5.6C2.4,4.5,1.5,3.6,0.4,3.3L-1.2,3l1.6-0.3c1.2-0.2,2.1-1.1,2.3-2.3L3-1.2l0.3,1.6 c0.2,1.2,1.1,2.1,2.3,2.3L7.2,3L5.6,3.3C4.5,3.6,3.6,4.5,3.3,5.6L3,7.2z"/></g>
<g transform="translate(496,775) scale(5.3216666666667)"><path d="M3,7.2L2.7,5.6C2.4,4.5,1.5,3.6,0.4,3.3L-1.2,3l1.6-0.3c1.2-0.2,2.1-1.1,2.3-2.3L3-1.2l0.3,1.6 c0.2,1.2,1.1,2.1,2.3,2.3L7.2,3L5.6,3.3C4.5,3.6,3.6,4.5,3.3,5.6L3,7.2z"/></g>
<g transform="translate(527,775) scale(5.3216666666667)"><path d="M3,7.2L2.7,5.6C2.4,4.5,1.5,3.6,0.4,3.3L-1.2,3l1.6-0.3c1.2-0.2,2.1-1.1,2.3-2.3L3-1.2l0.3,1.6 c0.2,1.2,1.1,2.1,2.3,2.3L7.2,3L5.6,3.3C4.5,3.6,3.6,4.5,3.3,5.6L3,7.2z"/></g>
<g transform="translate(589,775) scale(5.3216666666667)"><path d="M3,7.2L2.7,5.6C2.4,4.5,1.5,3.6,0.4,3.3L-1.2,3l1.6-0.3c1.2-0.2,2.1-1.1,2.3-2.3L3-1.2l0.3,1.6 c0.2,1.2,1.1,2.1,2.3,2.3L7.2,3L5.6,3.3C4.5,3.6,3.6,4.5,3.3,5.6L3,7.2z"/></g>
<g transform="translate(620,775) scale(5.3216666666667)"><path d="M3,7.2L2.7,5.6C2.4,4.5,1.5,3.6,0.4,3.3L-1.2,3l1.6-0.3c1.2-0.2,2.1-1.1,2.3-2.3L3-1.2l0.3,1.6 c0.2,1.2,1.1,2.1,2.3,2.3L7.2,3L5.6,3.3C4.5,3.6,3.6,4.5,3.3,5.6L3,7.2z"/></g>
<g transform="translate(651,775) scale(5.3216666666667)"><path d="M3,7.2L2.7,5.6C2.4,4.5,1.5,3.6,0.4,3.3L-1.2,3l1.6-0.3c1.2-0.2,2.1-1.1,2.3-2.3L3-1.2l0.3,1.6 c0.2,1.2,1.1,2.1,2.3,2.3L7.2,3L5.6,3.3C4.5,3.6,3.6,4.5,3.3,5.6L3,7.2z"/></g>
<g transform="translate(682,775) scale(5.3216666666667)"><path d="M3,7.2L2.7,5.6C2.4,4.5,1.5,3.6,0.4,3.3L-1.2,3l1.6-0.3c1.2-0.2,2.1-1.1,2.3-2.3L3-1.2l0.3,1.6 c0.2,1.2,1.1,2.1,2.3,2.3L7.2,3L5.6,3.3C4.5,3.6,3.6,4.5,3.3,5.6L3,7.2z"/></g>
<g transform="translate(806,775) scale(5.3216666666667)"><path d="M3,7.2L2.7,5.6C2.4,4.5,1.5,3.6,0.4,3.3L-1.2,3l1.6-0.3c1.2-0.2,2.1-1.1,2.3-2.3L3-1.2l0.3,1.6 c0.2,1.2,1.1,2.1,2.3,2.3L7.2,3L5.6,3.3C4.5,3.6,3.6,4.5,3.3,5.6L3,7.2z"/></g>
<g transform="translate(837,775) scale(5.3216666666667)"><path d="M3,7.2L2.7,5.6C2.4,4.5,1.5,3.6,0.4,3.3L-1.2,3l1.6-0.3c1.2-0.2,2.1-1.1,2.3-2.3L3-1.2l0.3,1.6 c0.2,1.2,1.1,2.1,2.3,2.3L7.2,3L5.6,3.3C4.5,3.6,3.6,4.5,3.3,5.6L3,7.2z"/></g>
<g transform="translate(899,775) scale(5.3216666666667)"><path d="M3,7.2L2.7,5.6C2.4,4.5,1.5,3.6,0.4,3.3L-1.2,3l1.6-0.3c1.2-0.2,2.1-1.1,2.3-2.3L3-1.2l0.3,1.6 c0.2,1.2,1.1,2.1,2.3,2.3L7.2,3L5.6,3.3C4.5,3.6,3.6,4.5,3.3,5.6L3,7.2z"/></g>
<g transform="translate(310,806) scale(5.3216666666667)"><path d="M3,7.2L2.7,5.6C2.4,4.5,1.5,3.6,0.4,3.3L-1.2,3l1.6-0.3c1.2-0.2,2.1-1.1,2.3-2.3L3-1.2l0.3,1.6 c0.2,1.2,1.1,2.1,2.3,2.3L7.2,3L5.6,3.3C4.5,3.6,3.6,4.5,3.3,5.6L3,7.2z"/></g>
<g transform="translate(434,806) scale(5.3216666666667)"><path d="M3,7.2L2.7,5.6C2.4,4.5,1.5,3.6,0.4,3.3L-1.2,3l1.6-0.3c1.2-0.2,2.1-1.1,2.3-2.3L3-1.2l0.3,1.6 c0.2,1.2,1.1,2.1,2.3,2.3L7.2,3L5.6,3.3C4.5,3.6,3.6,4.5,3.3,5.6L3,7.2z"/></g>
<g transform="translate(527,806) scale(5.3216666666667)"><path d="M3,7.2L2.7,5.6C2.4,4.5,1.5,3.6,0.4,3.3L-1.2,3l1.6-0.3c1.2-0.2,2.1-1.1,2.3-2.3L3-1.2l0.3,1.6 c0.2,1.2,1.1,2.1,2.3,2.3L7.2,3L5.6,3.3C4.5,3.6,3.6,4.5,3.3,5.6L3,7.2z"/></g>
<g transform="translate(558,806) scale(5.3216666666667)"><path d="M3,7.2L2.7,5.6C2.4,4.5,1.5,3.6,0.4,3.3L-1.2,3l1.6-0.3c1.2-0.2,2.1-1.1,2.3-2.3L3-1.2l0.3,1.6 c0.2,1.2,1.1,2.1,2.3,2.3L7.2,3L5.6,3.3C4.5,3.6,3.6,4.5,3.3,5.6L3,7.2z"/></g>
<g transform="translate(589,806) scale(5.3216666666667)"><path d="M3,7.2L2.7,5.6C2.4,4.5,1.5,3.6,0.4,3.3L-1.2,3l1.6-0.3c1.2-0.2,2.1-1.1,2.3-2.3L3-1.2l0.3,1.6 c0.2,1.2,1.1,2.1,2.3,2.3L7.2,3L5.6,3.3C4.5,3.6,3.6,4.5,3.3,5.6L3,7.2z"/></g>
<g transform="translate(620,806) scale(5.3216666666667)"><path d="M3,7.2L2.7,5.6C2.4,4.5,1.5,3.6,0.4,3.3L-1.2,3l1.6-0.3c1.2-0.2,2.1-1.1,2.3-2.3L3-1.2l0.3,1.6 c0.2,1.2,1.1,2.1,2.3,2.3L7.2,3L5.6,3.3C4.5,3.6,3.6,4.5,3.3,5.6L3,7.2z"/></g>
<g transform="translate(682,806) scale(5.3216666666667)"><path d="M3,7.2L2.7,5.6C2.4,4.5,1.5,3.6,0.4,3.3L-1.2,3l1.6-0.3c1.2-0.2,2.1-1.1,2.3-2.3L3-1.2l0.3,1.6 c0.2,1.2,1.1,2.1,2.3,2.3L7.2,3L5.6,3.3C4.5,3.6,3.6,4.5,3.3,5.6L3,7.2z"/></g>
<g transform="translate(713,806) scale(5.3216666666667)"><path d="M3,7.2L2.7,5.6C2.4,4.5,1.5,3.6,0.4,3.3L-1.2,3l1.6-0.3c1.2-0.2,2.1-1.1,2.3-2.3L3-1.2l0.3,1.6 c0.2,1.2,1.1,2.1,2.3,2.3L7.2,3L5.6,3.3C4.5,3.6,3.6,4.5,3.3,5.6L3,7.2z"/></g>
<g transform="translate(744,806) scale(5.3216666666667)"><path d="M3,7.2L2.7,5.6C2.4,4.5,1.5,3.6,0.4,3.3L-1.2,3l1.6-0.3c1.2-0.2,2.1-1.1,2.3-2.3L3-1.2l0.3,1.6 c0.2,1.2,1.1,2.1,2.3,2.3L7.2,3L5.6,3.3C4.5,3.6,3.6,4.5,3.3,5.6L3,7.2z"/></g>
<g transform="translate(775,806) scale(5.3216666666667)"><path d="M3,7.2L2.7,5.6C2.4,4.5,1.5,3.6,0.4,3.3L-1.2,3l1.6-0.3c1.2-0.2,2.1-1.1,2.3-2.3L3-1.2l0.3,1.6 c0.2,1.2,1.1,2.1,2.3,2.3L7.2,3L5.6,3.3C4.5,3.6,3.6,4.5,3.3,5.6L3,7.2z"/></g>
<g transform="translate(806,806) scale(5.3216666666667)"><path d="M3,7.2L2.7,5.6C2.4,4.5,1.5,3.6,0.4,3.3L-1.2,3l1.6-0.3c1.2-0.2,2.1-1.1,2.3-2.3L3-1.2l0.3,1.6 c0.2,1.2,1.1,2.1,2.3,2.3L7.2,3L5.6,3.3C4.5,3.6,3.6,4.5,3.3,5.6L3,7.2z"/></g>
<g transform="translate(837,806) scale(5.3216666666667)"><path d="M3,7.2L2.7,5.6C2.4,4.5,1.5,3.6,0.4,3.3L-1.2,3l1.6-0.3c1.2-0.2,2.1-1.1,2.3-2.3L3-1.2l0.3,1.6 c0.2,1.2,1.1,2.1,2.3,2.3L7.2,3L5.6,3.3C4.5,3.6,3.6,4.5,3.3,5.6L3,7.2z"/></g>
<g transform="translate(868,806) scale(5.3216666666667)"><path d="M3,7.2L2.7,5.6C2.4,4.5,1.5,3.6,0.4,3.3L-1.2,3l1.6-0.3c1.2-0.2,2.1-1.1,2.3-2.3L3-1.2l0.3,1.6 c0.2,1.2,1.1,2.1,2.3,2.3L7.2,3L5.6,3.3C4.5,3.6,3.6,4.5,3.3,5.6L3,7.2z"/></g>
<g transform="translate(930,806) scale(5.3216666666667)"><path d="M3,7.2L2.7,5.6C2.4,4.5,1.5,3.6,0.4,3.3L-1.2,3l1.6-0.3c1.2-0.2,2.1-1.1,2.3-2.3L3-1.2l0.3,1.6 c0.2,1.2,1.1,2.1,2.3,2.3L7.2,3L5.6,3.3C4.5,3.6,3.6,4.5,3.3,5.6L3,7.2z"/></g>
<g transform="translate(310,837) scale(5.3216666666667)"><path d="M3,7.2L2.7,5.6C2.4,4.5,1.5,3.6,0.4,3.3L-1.2,3l1.6-0.3c1.2-0.2,2.1-1.1,2.3-2.3L3-1.2l0.3,1.6 c0.2,1.2,1.1,2.1,2.3,2.3L7.2,3L5.6,3.3C4.5,3.6,3.6,4.5,3.3,5.6L3,7.2z"/></g>
<g transform="translate(341,837) scale(5.3216666666667)"><path d="M3,7.2L2.7,5.6C2.4,4.5,1.5,3.6,0.4,3.3L-1.2,3l1.6-0.3c1.2-0.2,2.1-1.1,2.3-2.3L3-1.2l0.3,1.6 c0.2,1.2,1.1,2.1,2.3,2.3L7.2,3L5.6,3.3C4.5,3.6,3.6,4.5,3.3,5.6L3,7.2z"/></g>
<g transform="translate(403,837) scale(5.3216666666667)"><path d="M3,7.2L2.7,5.6C2.4,4.5,1.5,3.6,0.4,3.3L-1.2,3l1.6-0.3c1.2-0.2,2.1-1.1,2.3-2.3L3-1.2l0.3,1.6 c0.2,1.2,1.1,2.1,2.3,2.3L7.2,3L5.6,3.3C4.5,3.6,3.6,4.5,3.3,5.6L3,7.2z"/></g>
<g transform="translate(496,837) scale(5.3216666666667)"><path d="M3,7.2L2.7,5.6C2.4,4.5,1.5,3.6,0.4,3.3L-1.2,3l1.6-0.3c1.2-0.2,2.1-1.1,2.3-2.3L3-1.2l0.3,1.6 c0.2,1.2,1.1,2.1,2.3,2.3L7.2,3L5.6,3.3C4.5,3.6,3.6,4.5,3.3,5.6L3,7.2z"/></g>
<g transform="translate(527,837) scale(5.3216666666667)"><path d="M3,7.2L2.7,5.6C2.4,4.5,1.5,3.6,0.4,3.3L-1.2,3l1.6-0.3c1.2-0.2,2.1-1.1,2.3-2.3L3-1.2l0.3,1.6 c0.2,1.2,1.1,2.1,2.3,2.3L7.2,3L5.6,3.3C4.5,3.6,3.6,4.5,3.3,5.6L3,7.2z"/></g>
<g transform="translate(558,837) scale(5.3216666666667)"><path d="M3,7.2L2.7,5.6C2.4,4.5,1.5,3.6,0.4,3.3L-1.2,3l1.6-0.3c1.2-0.2,2.1-1.1,2.3-2.3L3-1.2l0.3,1.6 c0.2,1.2,1.1,2.1,2.3,2.3L7.2,3L5.6,3.3C4.5,3.6,3.6,4.5,3.3,5.6L3,7.2z"/></g>
<g transform="translate(651,837) scale(5.3216666666667)"><path d="M3,7.2L2.7,5.6C2.4,4.5,1.5,3.6,0.4,3.3L-1.2,3l1.6-0.3c1.2-0.2,2.1-1.1,2.3-2.3L3-1.2l0.3,1.6 c0.2,1.2,1.1,2.1,2.3,2.3L7.2,3L5.6,3.3C4.5,3.6,3.6,4.5,3.3,5.6L3,7.2z"/></g>
<g transform="translate(682,837) scale(5.3216666666667)"><path d="M3,7.2L2.7,5.6C2.4,4.5,1.5,3.6,0.4,3.3L-1.2,3l1.6-0.3c1.2-0.2,2.1-1.1,2.3-2.3L3-1.2l0.3,1.6 c0.2,1.2,1.1,2.1,2.3,2.3L7.2,3L5.6,3.3C4.5,3.6,3.6,4.5,3.3,5.6L3,7.2z"/></g>
<g transform="translate(713,837) scale(5.3216666666667)"><path d="M3,7.2L2.7,5.6C2.4,4.5,1.5,3.6,0.4,3.3L-1.2,3l1.6-0.3c1.2-0.2,2.1-1.1,2.3-2.3L3-1.2l0.3,1.6 c0.2,1.2,1.1,2.1,2.3,2.3L7.2,3L5.6,3.3C4.5,3.6,3.6,4.5,3.3,5.6L3,7.2z"/></g>
<g transform="translate(775,837) scale(5.3216666666667)"><path d="M3,7.2L2.7,5.6C2.4,4.5,1.5,3.6,0.4,3.3L-1.2,3l1.6-0.3c1.2-0.2,2.1-1.1,2.3-2.3L3-1.2l0.3,1.6 c0.2,1.2,1.1,2.1,2.3,2.3L7.2,3L5.6,3.3C4.5,3.6,3.6,4.5,3.3,5.6L3,7.2z"/></g>
<g transform="translate(837,837) scale(5.3216666666667)"><path d="M3,7.2L2.7,5.6C2.4,4.5,1.5,3.6,0.4,3.3L-1.2,3l1.6-0.3c1.2-0.2,2.1-1.1,2.3-2.3L3-1.2l0.3,1.6 c0.2,1.2,1.1,2.1,2.3,2.3L7.2,3L5.6,3.3C4.5,3.6,3.6,4.5,3.3,5.6L3,7.2z"/></g>
<g transform="translate(868,837) scale(5.3216666666667)"><path d="M3,7.2L2.7,5.6C2.4,4.5,1.5,3.6,0.4,3.3L-1.2,3l1.6-0.3c1.2-0.2,2.1-1.1,2.3-2.3L3-1.2l0.3,1.6 c0.2,1.2,1.1,2.1,2.3,2.3L7.2,3L5.6,3.3C4.5,3.6,3.6,4.5,3.3,5.6L3,7.2z"/></g>
<g transform="translate(310,868) scale(5.3216666666667)"><path d="M3,7.2L2.7,5.6C2.4,4.5,1.5,3.6,0.4,3.3L-1.2,3l1.6-0.3c1.2-0.2,2.1-1.1,2.3-2.3L3-1.2l0.3,1.6 c0.2,1.2,1.1,2.1,2.3,2.3L7.2,3L5.6,3.3C4.5,3.6,3.6,4.5,3.3,5.6L3,7.2z"/></g>
<g transform="translate(341,868) scale(5.3216666666667)"><path d="M3,7.2L2.7,5.6C2.4,4.5,1.5,3.6,0.4,3.3L-1.2,3l1.6-0.3c1.2-0.2,2.1-1.1,2.3-2.3L3-1.2l0.3,1.6 c0.2,1.2,1.1,2.1,2.3,2.3L7.2,3L5.6,3.3C4.5,3.6,3.6,4.5,3.3,5.6L3,7.2z"/></g>
<g transform="translate(403,868) scale(5.3216666666667)"><path d="M3,7.2L2.7,5.6C2.4,4.5,1.5,3.6,0.4,3.3L-1.2,3l1.6-0.3c1.2-0.2,2.1-1.1,2.3-2.3L3-1.2l0.3,1.6 c0.2,1.2,1.1,2.1,2.3,2.3L7.2,3L5.6,3.3C4.5,3.6,3.6,4.5,3.3,5.6L3,7.2z"/></g>
<g transform="translate(434,868) scale(5.3216666666667)"><path d="M3,7.2L2.7,5.6C2.4,4.5,1.5,3.6,0.4,3.3L-1.2,3l1.6-0.3c1.2-0.2,2.1-1.1,2.3-2.3L3-1.2l0.3,1.6 c0.2,1.2,1.1,2.1,2.3,2.3L7.2,3L5.6,3.3C4.5,3.6,3.6,4.5,3.3,5.6L3,7.2z"/></g>
<g transform="translate(496,868) scale(5.3216666666667)"><path d="M3,7.2L2.7,5.6C2.4,4.5,1.5,3.6,0.4,3.3L-1.2,3l1.6-0.3c1.2-0.2,2.1-1.1,2.3-2.3L3-1.2l0.3,1.6 c0.2,1.2,1.1,2.1,2.3,2.3L7.2,3L5.6,3.3C4.5,3.6,3.6,4.5,3.3,5.6L3,7.2z"/></g>
<g transform="translate(558,868) scale(5.3216666666667)"><path d="M3,7.2L2.7,5.6C2.4,4.5,1.5,3.6,0.4,3.3L-1.2,3l1.6-0.3c1.2-0.2,2.1-1.1,2.3-2.3L3-1.2l0.3,1.6 c0.2,1.2,1.1,2.1,2.3,2.3L7.2,3L5.6,3.3C4.5,3.6,3.6,4.5,3.3,5.6L3,7.2z"/></g>
<g transform="translate(620,868) scale(5.3216666666667)"><path d="M3,7.2L2.7,5.6C2.4,4.5,1.5,3.6,0.4,3.3L-1.2,3l1.6-0.3c1.2-0.2,2.1-1.1,2.3-2.3L3-1.2l0.3,1.6 c0.2,1.2,1.1,2.1,2.3,2.3L7.2,3L5.6,3.3C4.5,3.6,3.6,4.5,3.3,5.6L3,7.2z"/></g>
<g transform="translate(651,868) scale(5.3216666666667)"><path d="M3,7.2L2.7,5.6C2.4,4.5,1.5,3.6,0.4,3.3L-1.2,3l1.6-0.3c1.2-0.2,2.1-1.1,2.3-2.3L3-1.2l0.3,1.6 c0.2,1.2,1.1,2.1,2.3,2.3L7.2,3L5.6,3.3C4.5,3.6,3.6,4.5,3.3,5.6L3,7.2z"/></g>
<g transform="translate(682,868) scale(5.3216666666667)"><path d="M3,7.2L2.7,5.6C2.4,4.5,1.5,3.6,0.4,3.3L-1.2,3l1.6-0.3c1.2-0.2,2.1-1.1,2.3-2.3L3-1.2l0.3,1.6 c0.2,1.2,1.1,2.1,2.3,2.3L7.2,3L5.6,3.3C4.5,3.6,3.6,4.5,3.3,5.6L3,7.2z"/></g>
<g transform="translate(713,868) scale(5.3216666666667)"><path d="M3,7.2L2.7,5.6C2.4,4.5,1.5,3.6,0.4,3.3L-1.2,3l1.6-0.3c1.2-0.2,2.1-1.1,2.3-2.3L3-1.2l0.3,1.6 c0.2,1.2,1.1,2.1,2.3,2.3L7.2,3L5.6,3.3C4.5,3.6,3.6,4.5,3.3,5.6L3,7.2z"/></g>
<g transform="translate(744,868) scale(5.3216666666667)"><path d="M3,7.2L2.7,5.6C2.4,4.5,1.5,3.6,0.4,3.3L-1.2,3l1.6-0.3c1.2-0.2,2.1-1.1,2.3-2.3L3-1.2l0.3,1.6 c0.2,1.2,1.1,2.1,2.3,2.3L7.2,3L5.6,3.3C4.5,3.6,3.6,4.5,3.3,5.6L3,7.2z"/></g>
<g transform="translate(775,868) scale(5.3216666666667)"><path d="M3,7.2L2.7,5.6C2.4,4.5,1.5,3.6,0.4,3.3L-1.2,3l1.6-0.3c1.2-0.2,2.1-1.1,2.3-2.3L3-1.2l0.3,1.6 c0.2,1.2,1.1,2.1,2.3,2.3L7.2,3L5.6,3.3C4.5,3.6,3.6,4.5,3.3,5.6L3,7.2z"/></g>
<g transform="translate(806,868) scale(5.3216666666667)"><path d="M3,7.2L2.7,5.6C2.4,4.5,1.5,3.6,0.4,3.3L-1.2,3l1.6-0.3c1.2-0.2,2.1-1.1,2.3-2.3L3-1.2l0.3,1.6 c0.2,1.2,1.1,2.1,2.3,2.3L7.2,3L5.6,3.3C4.5,3.6,3.6,4.5,3.3,5.6L3,7.2z"/></g>
<g transform="translate(837,868) scale(5.3216666666667)"><path d="M3,7.2L2.7,5.6C2.4,4.5,1.5,3.6,0.4,3.3L-1.2,3l1.6-0.3c1.2-0.2,2.1-1.1,2.3-2.3L3-1.2l0.3,1.6 c0.2,1.2,1.1,2.1,2.3,2.3L7.2,3L5.6,3.3C4.5,3.6,3.6,4.5,3.3,5.6L3,7.2z"/></g>
<g transform="translate(868,868) scale(5.3216666666667)"><path d="M3,7.2L2.7,5.6C2.4,4.5,1.5,3.6,0.4,3.3L-1.2,3l1.6-0.3c1.2-0.2,2.1-1.1,2.3-2.3L3-1.2l0.3,1.6 c0.2,1.2,1.1,2.1,2.3,2.3L7.2,3L5.6,3.3C4.5,3.6,3.6,4.5,3.3,5.6L3,7.2z"/></g>
<g transform="translate(899,868) scale(5.3216666666667)"><path d="M3,7.2L2.7,5.6C2.4,4.5,1.5,3.6,0.4,3.3L-1.2,3l1.6-0.3c1.2-0.2,2.1-1.1,2.3-2.3L3-1.2l0.3,1.6 c0.2,1.2,1.1,2.1,2.3,2.3L7.2,3L5.6,3.3C4.5,3.6,3.6,4.5,3.3,5.6L3,7.2z"/></g>
<g transform="translate(372,899) scale(5.3216666666667)"><path d="M3,7.2L2.7,5.6C2.4,4.5,1.5,3.6,0.4,3.3L-1.2,3l1.6-0.3c1.2-0.2,2.1-1.1,2.3-2.3L3-1.2l0.3,1.6 c0.2,1.2,1.1,2.1,2.3,2.3L7.2,3L5.6,3.3C4.5,3.6,3.6,4.5,3.3,5.6L3,7.2z"/></g>
<g transform="translate(403,899) scale(5.3216666666667)"><path d="M3,7.2L2.7,5.6C2.4,4.5,1.5,3.6,0.4,3.3L-1.2,3l1.6-0.3c1.2-0.2,2.1-1.1,2.3-2.3L3-1.2l0.3,1.6 c0.2,1.2,1.1,2.1,2.3,2.3L7.2,3L5.6,3.3C4.5,3.6,3.6,4.5,3.3,5.6L3,7.2z"/></g>
<g transform="translate(434,899) scale(5.3216666666667)"><path d="M3,7.2L2.7,5.6C2.4,4.5,1.5,3.6,0.4,3.3L-1.2,3l1.6-0.3c1.2-0.2,2.1-1.1,2.3-2.3L3-1.2l0.3,1.6 c0.2,1.2,1.1,2.1,2.3,2.3L7.2,3L5.6,3.3C4.5,3.6,3.6,4.5,3.3,5.6L3,7.2z"/></g>
<g transform="translate(465,899) scale(5.3216666666667)"><path d="M3,7.2L2.7,5.6C2.4,4.5,1.5,3.6,0.4,3.3L-1.2,3l1.6-0.3c1.2-0.2,2.1-1.1,2.3-2.3L3-1.2l0.3,1.6 c0.2,1.2,1.1,2.1,2.3,2.3L7.2,3L5.6,3.3C4.5,3.6,3.6,4.5,3.3,5.6L3,7.2z"/></g>
<g transform="translate(496,899) scale(5.3216666666667)"><path d="M3,7.2L2.7,5.6C2.4,4.5,1.5,3.6,0.4,3.3L-1.2,3l1.6-0.3c1.2-0.2,2.1-1.1,2.3-2.3L3-1.2l0.3,1.6 c0.2,1.2,1.1,2.1,2.3,2.3L7.2,3L5.6,3.3C4.5,3.6,3.6,4.5,3.3,5.6L3,7.2z"/></g>
<g transform="translate(527,899) scale(5.3216666666667)"><path d="M3,7.2L2.7,5.6C2.4,4.5,1.5,3.6,0.4,3.3L-1.2,3l1.6-0.3c1.2-0.2,2.1-1.1,2.3-2.3L3-1.2l0.3,1.6 c0.2,1.2,1.1,2.1,2.3,2.3L7.2,3L5.6,3.3C4.5,3.6,3.6,4.5,3.3,5.6L3,7.2z"/></g>
<g transform="translate(651,899) scale(5.3216666666667)"><path d="M3,7.2L2.7,5.6C2.4,4.5,1.5,3.6,0.4,3.3L-1.2,3l1.6-0.3c1.2-0.2,2.1-1.1,2.3-2.3L3-1.2l0.3,1.6 c0.2,1.2,1.1,2.1,2.3,2.3L7.2,3L5.6,3.3C4.5,3.6,3.6,4.5,3.3,5.6L3,7.2z"/></g>
<g transform="translate(682,899) scale(5.3216666666667)"><path d="M3,7.2L2.7,5.6C2.4,4.5,1.5,3.6,0.4,3.3L-1.2,3l1.6-0.3c1.2-0.2,2.1-1.1,2.3-2.3L3-1.2l0.3,1.6 c0.2,1.2,1.1,2.1,2.3,2.3L7.2,3L5.6,3.3C4.5,3.6,3.6,4.5,3.3,5.6L3,7.2z"/></g>
<g transform="translate(713,899) scale(5.3216666666667)"><path d="M3,7.2L2.7,5.6C2.4,4.5,1.5,3.6,0.4,3.3L-1.2,3l1.6-0.3c1.2-0.2,2.1-1.1,2.3-2.3L3-1.2l0.3,1.6 c0.2,1.2,1.1,2.1,2.3,2.3L7.2,3L5.6,3.3C4.5,3.6,3.6,4.5,3.3,5.6L3,7.2z"/></g>
<g transform="translate(806,899) scale(5.3216666666667)"><path d="M3,7.2L2.7,5.6C2.4,4.5,1.5,3.6,0.4,3.3L-1.2,3l1.6-0.3c1.2-0.2,2.1-1.1,2.3-2.3L3-1.2l0.3,1.6 c0.2,1.2,1.1,2.1,2.3,2.3L7.2,3L5.6,3.3C4.5,3.6,3.6,4.5,3.3,5.6L3,7.2z"/></g>
<g transform="translate(837,899) scale(5.3216666666667)"><path d="M3,7.2L2.7,5.6C2.4,4.5,1.5,3.6,0.4,3.3L-1.2,3l1.6-0.3c1.2-0.2,2.1-1.1,2.3-2.3L3-1.2l0.3,1.6 c0.2,1.2,1.1,2.1,2.3,2.3L7.2,3L5.6,3.3C4.5,3.6,3.6,4.5,3.3,5.6L3,7.2z"/></g>
<g transform="translate(899,899) scale(5.3216666666667)"><path d="M3,7.2L2.7,5.6C2.4,4.5,1.5,3.6,0.4,3.3L-1.2,3l1.6-0.3c1.2-0.2,2.1-1.1,2.3-2.3L3-1.2l0.3,1.6 c0.2,1.2,1.1,2.1,2.3,2.3L7.2,3L5.6,3.3C4.5,3.6,3.6,4.5,3.3,5.6L3,7.2z"/></g>
<g transform="translate(372,930) scale(5.3216666666667)"><path d="M3,7.2L2.7,5.6C2.4,4.5,1.5,3.6,0.4,3.3L-1.2,3l1.6-0.3c1.2-0.2,2.1-1.1,2.3-2.3L3-1.2l0.3,1.6 c0.2,1.2,1.1,2.1,2.3,2.3L7.2,3L5.6,3.3C4.5,3.6,3.6,4.5,3.3,5.6L3,7.2z"/></g>
<g transform="translate(403,930) scale(5.3216666666667)"><path d="M3,7.2L2.7,5.6C2.4,4.5,1.5,3.6,0.4,3.3L-1.2,3l1.6-0.3c1.2-0.2,2.1-1.1,2.3-2.3L3-1.2l0.3,1.6 c0.2,1.2,1.1,2.1,2.3,2.3L7.2,3L5.6,3.3C4.5,3.6,3.6,4.5,3.3,5.6L3,7.2z"/></g>
<g transform="translate(558,930) scale(5.3216666666667)"><path d="M3,7.2L2.7,5.6C2.4,4.5,1.5,3.6,0.4,3.3L-1.2,3l1.6-0.3c1.2-0.2,2.1-1.1,2.3-2.3L3-1.2l0.3,1.6 c0.2,1.2,1.1,2.1,2.3,2.3L7.2,3L5.6,3.3C4.5,3.6,3.6,4.5,3.3,5.6L3,7.2z"/></g>
<g transform="translate(589,930) scale(5.3216666666667)"><path d="M3,7.2L2.7,5.6C2.4,4.5,1.5,3.6,0.4,3.3L-1.2,3l1.6-0.3c1.2-0.2,2.1-1.1,2.3-2.3L3-1.2l0.3,1.6 c0.2,1.2,1.1,2.1,2.3,2.3L7.2,3L5.6,3.3C4.5,3.6,3.6,4.5,3.3,5.6L3,7.2z"/></g>
<g transform="translate(713,930) scale(5.3216666666667)"><path d="M3,7.2L2.7,5.6C2.4,4.5,1.5,3.6,0.4,3.3L-1.2,3l1.6-0.3c1.2-0.2,2.1-1.1,2.3-2.3L3-1.2l0.3,1.6 c0.2,1.2,1.1,2.1,2.3,2.3L7.2,3L5.6,3.3C4.5,3.6,3.6,4.5,3.3,5.6L3,7.2z"/></g>
<g transform="translate(806,930) scale(5.3216666666667)"><path d="M3,7.2L2.7,5.6C2.4,4.5,1.5,3.6,0.4,3.3L-1.2,3l1.6-0.3c1.2-0.2,2.1-1.1,2.3-2.3L3-1.2l0.3,1.6 c0.2,1.2,1.1,2.1,2.3,2.3L7.2,3L5.6,3.3C4.5,3.6,3.6,4.5,3.3,5.6L3,7.2z"/></g>
<g transform="translate(868,930) scale(5.3216666666667)"><path d="M3,7.2L2.7,5.6C2.4,4.5,1.5,3.6,0.4,3.3L-1.2,3l1.6-0.3c1.2-0.2,2.1-1.1,2.3-2.3L3-1.2l0.3,1.6 c0.2,1.2,1.1,2.1,2.3,2.3L7.2,3L5.6,3.3C4.5,3.6,3.6,4.5,3.3,5.6L3,7.2z"/></g>
</g></g></mask></defs>
<rect x="0" y="0" width="1023" height="1023" mask="url(#qrmask)" fill="url(#pattern-gradient)" />
<g><g transform="translate(62,62)"  fill="#000000"><g transform="scale(15.5)"><path d="M14,14V4.4C14,2,12,0,9.6,0H4.4C2,0,0,2,0,4.4v5.1C0,12,2,14,4.4,14H14z M4.8,2h4.4C10.7,2,12,3.3,12,4.8V12H4.8 C3.3,12,2,10.7,2,9.2V4.8C2,3.3,3.3,2,4.8,2z"/></g></g>
<g transform="translate(124,124)"  fill="#000000"><g transform="scale(15.5)"><path d="M3,5.1l0.4,0.4C3.7,5.8,4.1,6,4.5,6h0C5.3,6,6,5.3,6,4.5v0c0-0.4-0.2-0.8-0.4-1.1L5.1,3l0.4-0.4 C5.8,2.3,6,1.9,6,1.5v0C6,0.7,5.3,0,4.5,0h0C4.1,0,3.7,0.2,3.4,0.4L3,0.9L2.6,0.4C2.3,0.2,1.9,0,1.5,0h0C0.7,0,0,0.7,0,1.5v0 c0,0.4,0.2,0.8,0.4,1.1L0.9,3L0.4,3.4C0.2,3.7,0,4.1,0,4.5v0C0,5.3,0.7,6,1.5,6h0c0.4,0,0.8-0.2,1.1-0.4L3,5.1z"/></g></g>
<g transform="translate(744,62)"  fill="#000000"><g transform="scale(15.5) rotate(90 7 7)"><path d="M14,14V4.4C14,2,12,0,9.6,0H4.4C2,0,0,2,0,4.4v5.1C0,12,2,14,4.4,14H14z M4.8,2h4.4C10.7,2,12,3.3,12,4.8V12H4.8 C3.3,12,2,10.7,2,9.2V4.8C2,3.3,3.3,2,4.8,2z"/></g></g>
<g transform="translate(806,124)"  fill="#000000"><g transform="scale(15.5)"><path d="M3,5.1l0.4,0.4C3.7,5.8,4.1,6,4.5,6h0C5.3,6,6,5.3,6,4.5v0c0-0.4-0.2-0.8-0.4-1.1L5.1,3l0.4-0.4 C5.8,2.3,6,1.9,6,1.5v0C6,0.7,5.3,0,4.5,0h0C4.1,0,3.7,0.2,3.4,0.4L3,0.9L2.6,0.4C2.3,0.2,1.9,0,1.5,0h0C0.7,0,0,0.7,0,1.5v0 c0,0.4,0.2,0.8,0.4,1.1L0.9,3L0.4,3.4C0.2,3.7,0,4.1,0,4.5v0C0,5.3,0.7,6,1.5,6h0c0.4,0,0.8-0.2,1.1-0.4L3,5.1z"/></g></g>
<g transform="translate(62,744)"  fill="#000000"><g transform="scale(15.5) rotate(-90 7 7)"><path d="M14,14V4.4C14,2,12,0,9.6,0H4.4C2,0,0,2,0,4.4v5.1C0,12,2,14,4.4,14H14z M4.8,2h4.4C10.7,2,12,3.3,12,4.8V12H4.8 C3.3,12,2,10.7,2,9.2V4.8C2,3.3,3.3,2,4.8,2z"/></g></g>
<g transform="translate(124,806)"  fill="#000000"><g transform="scale(15.5)"><path d="M3,5.1l0.4,0.4C3.7,5.8,4.1,6,4.5,6h0C5.3,6,6,5.3,6,4.5v0c0-0.4-0.2-0.8-0.4-1.1L5.1,3l0.4-0.4 C5.8,2.3,6,1.9,6,1.5v0C6,0.7,5.3,0,4.5,0h0C4.1,0,3.7,0.2,3.4,0.4L3,0.9L2.6,0.4C2.3,0.2,1.9,0,1.5,0h0C0.7,0,0,0.7,0,1.5v0 c0,0.4,0.2,0.8,0.4,1.1L0.9,3L0.4,3.4C0.2,3.7,0,4.1,0,4.5v0C0,5.3,0.7,6,1.5,6h0c0.4,0,0.8-0.2,1.1-0.4L3,5.1z"/></g></g></g>
</svg>